<?xml version="1.0" encoding="UTF-8" standalone="no"?>
<!-- Created with Inkscape (http://www.inkscape.org/) -->

<svg
   xmlns:dc="http://purl.org/dc/elements/1.1/"
   xmlns:cc="http://creativecommons.org/ns#"
   xmlns:rdf="http://www.w3.org/1999/02/22-rdf-syntax-ns#"
   xmlns:svg="http://www.w3.org/2000/svg"
   xmlns="http://www.w3.org/2000/svg"
   xmlns:sodipodi="http://sodipodi.sourceforge.net/DTD/sodipodi-0.dtd"
   xmlns:inkscape="http://www.inkscape.org/namespaces/inkscape"
   width="420"
   height="420"
   viewBox="0 0 420 420.00001"
   id="svg3358"
   version="1.1"
   inkscape:version="0.91 r13725"
   sodipodi:docname="asilo.svg">
  <defs
     id="defs3360">
    <clipPath
       clipPathUnits="userSpaceOnUse"
       id="clipPath338">
      <path
         d="m 0,1080 1920,0 L 1920,0 0,0 0,1080 Z"
         id="path340"
         inkscape:connector-curvature="0" />
    </clipPath>
  </defs>
  <sodipodi:namedview
     id="base"
     pagecolor="#ffffff"
     bordercolor="#666666"
     borderopacity="1.0"
     inkscape:pageopacity="0.0"
     inkscape:pageshadow="2"
     inkscape:zoom="1"
     inkscape:cx="133"
     inkscape:cy="234.02083"
     inkscape:document-units="px"
     inkscape:current-layer="layer1"
     showgrid="false"
     units="px"
     inkscape:window-width="1366"
     inkscape:window-height="655"
     inkscape:window-x="0"
     inkscape:window-y="25"
     inkscape:window-maximized="1" />
  <metadata
     id="metadata3363">
    <rdf:RDF>
      <cc:Work
         rdf:about="">
        <dc:format>image/svg+xml</dc:format>
        <dc:type
           rdf:resource="http://purl.org/dc/dcmitype/StillImage" />
        <dc:title />
      </cc:Work>
    </rdf:RDF>
  </metadata>
  <g
     inkscape:label="Camada 1"
     inkscape:groupmode="layer"
     id="layer1"
     transform="translate(0,-632.36216)">
    <g
       transform="matrix(2.3296694,0,0,-2.3296694,-1981.6744,2151.7807)"
       id="g334">
      <g
         id="g336"
         clip-path="url(#clipPath338)">
        <g
           id="g342"
           transform="translate(920.6406,543.8242)">
          <path
             d="M 0,0 C 0.918,0 1.804,0.496 2.262,1.364 2.92,2.611 2.441,4.157 1.194,4.815 -2.907,6.976 -7.468,9.427 -8.593,10.1 c -0.765,1.025 -3.366,5.138 -5.508,8.639 -0.735,1.203 -2.309,1.583 -3.512,0.844 -1.204,-0.735 -1.582,-2.308 -0.846,-3.512 5.573,-9.107 6.2,-9.609 6.575,-9.909 0.208,-0.166 0.841,-0.673 10.695,-5.867 C -0.808,0.095 -0.401,0 0,0"
             style="fill:#e6e6e6;fill-opacity:1;fill-rule:nonzero;stroke:none"
             id="path344"
             inkscape:connector-curvature="0" />
        </g>
        <g
           id="g346"
           transform="translate(895.2427,555.7363)">
          <path
             d="m 0,0 c 1.693,8.858 4.429,16.021 8.857,16.021 4.384,0 7.491,-14.033 7.552,-14.314 C 15.373,3.324 14.047,5.441 12.75,7.563 11.969,8.838 10.61,9.599 9.116,9.599 8.333,9.599 7.565,9.383 6.896,8.972 5.925,8.378 5.245,7.442 4.979,6.337 4.713,5.232 4.893,4.088 5.486,3.118 c 5.73,-9.363 6.386,-9.887 6.965,-10.351 0.279,-0.224 0.765,-0.611 6.64,-3.749 0.063,-0.6 0.126,-1.226 0.187,-1.914 0.09,-1.018 0.06,-1.774 -0.055,-2.335 0.1,-2.117 0.055,-3.787 0.055,-3.787 l -20.841,0 c 0,0 -0.13,10.161 1.563,19.018"
             style="fill:#e6e6e6;fill-opacity:1;fill-rule:nonzero;stroke:none"
             id="path348"
             inkscape:connector-curvature="0" />
        </g>
        <g
           id="g350"
           transform="translate(908.6333,535.8613)">
          <path
             d="m 0,0 -9.161,0 0.891,-17.687 6.998,0 L 0,0 Z"
             style="fill:#e6e6e6;fill-opacity:1;fill-rule:nonzero;stroke:none"
             id="path352"
             inkscape:connector-curvature="0" />
        </g>
        <g
           id="g354"
           transform="translate(900.7456,514.3135)">
          <path
             d="m 0,0 c 0,-0.809 0.655,-1.463 1.463,-1.463 l 5.725,0 c 0.808,0 1.463,0.654 1.463,1.463 0,0.808 -0.655,1.463 -1.463,1.463 l -5.725,0 C 0.655,1.463 0,0.808 0,0"
             style="fill:#e6e6e6;fill-opacity:1;fill-rule:nonzero;stroke:none"
             id="path356"
             inkscape:connector-curvature="0" />
        </g>
        <g
           id="g358"
           transform="translate(900.9741,513.1768)">
          <path
             d="M 0,0 1.971,0.021 3.049,6.776 2.923,7.052 C 2.782,7.359 2.625,7.634 2.469,7.845 l -0.3,0.407 -4.047,0 0,-2.337 0.808,0 L 0,0 Z m -8.549,8.252 c -0.798,0 -1.199,-0.302 -1.458,-0.565 -0.134,-0.135 -0.336,-0.382 -0.543,-0.793 l -0.15,-0.299 1.283,-7.084 1.971,0.02 1.019,6.384 0.77,0 0,2.337 -2.892,0 z m -8.537,-9.563 1.152,7.226 1.082,0 0.2,0.739 c 0.422,1.563 1.082,2.805 1.96,3.691 1.09,1.103 2.522,1.685 4.143,1.685 l 2.892,0 0,20.126 c 0,3.228 3.126,6.163 5.409,8.306 0.631,0.591 1.132,1.065 1.35,1.333 0.921,1.141 1.23,3.705 0.648,5.382 -0.349,1.01 -0.878,1.603 -1.667,1.865 l -0.081,0.026 -0.086,0.014 c -0.021,0.002 -0.113,0.019 -0.281,0.019 -0.293,0 -0.626,-0.049 -0.99,-0.144 L -2.143,48.75 -2.1,47.936 c 0.044,-0.829 -0.137,-1.654 -0.525,-2.388 -0.81,-1.535 -2.391,-2.488 -4.126,-2.488 -0.749,0 -1.498,0.186 -2.168,0.536 -14.206,7.489 -15.105,8.208 -15.489,8.514 -0.663,0.532 -1.573,1.261 -9.653,14.462 -0.649,1.063 -0.846,2.315 -0.555,3.525 0.291,1.211 1.037,2.235 2.099,2.884 0.734,0.45 1.574,0.687 2.431,0.687 1.638,0 3.125,-0.833 3.979,-2.229 3.111,-5.086 6.377,-10.23 7.597,-11.965 l 0.128,-0.182 0.192,-0.11 c 1.893,-1.089 7.482,-4.101 13.29,-7.164 l 0.443,-0.234 0.452,0.215 c 1.18,0.56 2.504,0.881 3.631,0.881 0.594,0 1.149,-0.085 1.65,-0.251 C 3.188,51.99 4.588,50.533 5.322,48.414 6.204,45.864 5.965,41.802 4.039,39.417 3.657,38.945 3.098,38.42 2.39,37.754 -0.681,34.875 -1.878,33.305 -1.878,32.156 l 0,-20.126 4.003,0 c 0.822,0 3.606,-0.387 4.93,-5.372 l 0.197,-0.743 1.018,0 1.306,-7.226 -26.662,0 z"
             style="fill:#9d4038;fill-opacity:1;fill-rule:nonzero;stroke:none"
             id="path360"
             inkscape:connector-curvature="0" />
        </g>
        <g
           id="g362"
           transform="translate(905.9238,573.0825)">
          <path
             d="M 0,0 C -1.061,0.758 -0.521,9.509 5.47,9.119 11.462,8.728 10.812,0.129 9.249,-1.823 7.685,-3.776 7.294,-4.819 4.168,-4.819 3.777,-4.819 2.735,-1.953 0,0"
             style="fill:#e6e6e6;fill-opacity:1;fill-rule:nonzero;stroke:none"
             id="path364"
             inkscape:connector-curvature="0" />
        </g>
        <g
           id="g366"
           transform="translate(922.7217,513.1758)">
          <path
             d="m 0,0 c -0.343,0 -0.621,0.278 -0.621,0.621 l 0,21.722 c 0,1.951 2.056,3.88 3.557,5.288 0.438,0.41 0.815,0.765 1.004,0.998 0.88,1.088 1.005,3.166 0.57,4.423 -0.316,0.914 -0.841,1.481 -1.603,1.735 -0.807,0.271 -2.201,-0.24 -2.69,-0.606 -0.274,-0.204 -0.663,-0.15 -0.868,0.124 -0.206,0.274 -0.151,0.664 0.124,0.87 0.664,0.497 2.47,1.241 3.827,0.79 1.137,-0.38 1.938,-1.222 2.383,-2.507 C 6.236,31.859 6.097,29.324 4.904,27.848 4.663,27.549 4.275,27.187 3.785,26.726 2.525,25.544 0.621,23.758 0.621,22.343 l 0,-21.722 C 0.621,0.278 0.343,0 0,0"
             style="fill:#e6e6e6;fill-opacity:1;fill-rule:nonzero;stroke:none"
             id="path368"
             inkscape:connector-curvature="0" />
        </g>
        <g
           id="g370"
           transform="translate(929.3931,513.332)">
          <path
             d="m 0,0 c -0.343,0 -0.62,0.277 -0.62,0.62 0,3.946 -1.263,5.586 -1.94,5.586 l -7.447,0 c -0.618,0 -1.114,-0.196 -1.513,-0.6 -0.567,-0.574 -1.235,-1.879 -1.203,-4.841 L -12.722,0.62 C -12.722,0.277 -13,0 -13.343,0 c -0.343,0 -0.62,0.277 -0.62,0.62 l -0.002,0.13 c -0.029,2.724 0.496,4.651 1.563,5.729 0.636,0.642 1.442,0.968 2.395,0.968 l 7.447,0 C -1.028,7.447 0.621,5.312 0.621,0.62 0.621,0.277 0.343,0 0,0"
             style="fill:#e6e6e6;fill-opacity:1;fill-rule:nonzero;stroke:none"
             id="path372"
             inkscape:connector-curvature="0" />
        </g>
        <g
           id="g374"
           transform="translate(917.3882,516.5117)">
          <path
             d="m 0,0 -2.56,0 -0.581,-3.646 3.801,0 L 0,0 Z"
             style="fill:#e6e6e6;fill-opacity:1;fill-rule:nonzero;stroke:none"
             id="path376"
             inkscape:connector-curvature="0" />
        </g>
        <g
           id="g378"
           transform="translate(924.021,516.5117)">
          <path
             d="m 0,0 -2.56,0 -0.582,-3.646 3.802,0 L 0,0 Z"
             style="fill:#e6e6e6;fill-opacity:1;fill-rule:nonzero;stroke:none"
             id="path380"
             inkscape:connector-curvature="0" />
        </g>
        <g
           id="g382"
           transform="translate(930.5381,516.5117)">
          <path
             d="m 0,0 -2.561,0 -0.581,-3.646 3.801,0 L 0,0 Z"
             style="fill:#e6e6e6;fill-opacity:1;fill-rule:nonzero;stroke:none"
             id="path384"
             inkscape:connector-curvature="0" />
        </g>
        <g
           id="g386"
           transform="translate(872.7183,544.9473)">
          <path
             d="m 0,0 -13.44,0 -6.808,-20.215 9.36,-3.635 L 0,0 Z"
             style="fill:#e6e6e6;fill-opacity:1;fill-rule:nonzero;stroke:none"
             id="path388"
             inkscape:connector-curvature="0" />
        </g>
        <g
           id="g390"
           transform="translate(879.2305,544.9473)">
          <path
             d="M 0,0 -3.622,0 -9.071,-11.889 -2.986,-25.362 6.372,-21.73 0,0 Z"
             style="fill:#e6e6e6;fill-opacity:1;fill-rule:nonzero;stroke:none"
             id="path392"
             inkscape:connector-curvature="0" />
        </g>
        <g
           id="g394"
           transform="translate(850.7212,519.2598)">
          <path
             d="m 0,0 c -0.351,-1.132 0.286,-2.336 1.418,-2.687 l 8.028,-2.475 c 1.132,-0.352 2.333,0.283 2.683,1.418 0.351,1.132 -0.285,2.333 -1.418,2.683 L 2.684,1.418 C 1.551,1.769 0.35,1.132 0,0"
             style="fill:#e6e6e6;fill-opacity:1;fill-rule:nonzero;stroke:none"
             id="path396"
             inkscape:connector-curvature="0" />
        </g>
        <g
           id="g398"
           transform="translate(894.2231,557.2368)">
          <path
             d="m 0,0 c 1.316,0 2.585,0.711 3.242,1.955 0.944,1.788 0.257,4.003 -1.531,4.946 -5.878,3.097 -12.414,6.611 -14.026,7.574 -1.098,1.47 -4.825,7.365 -7.894,12.382 -1.055,1.725 -3.31,2.269 -5.035,1.211 -1.725,-1.054 -2.267,-3.308 -1.213,-5.034 7.989,-13.053 8.888,-13.772 9.424,-14.202 0.299,-0.239 1.206,-0.964 15.328,-8.41 C -1.158,0.136 -0.574,0 0,0"
             style="fill:#e6e6e6;fill-opacity:1;fill-rule:nonzero;stroke:none"
             id="path400"
             inkscape:connector-curvature="0" />
        </g>
        <g
           id="g402"
           transform="translate(857.8218,574.5278)">
          <path
             d="m 0,0 c 2.427,12.696 6.348,22.963 12.695,22.963 6.283,0 10.735,-20.114 10.824,-20.516 -1.485,2.317 -3.385,5.352 -5.245,8.393 -1.12,1.827 -3.066,2.918 -5.209,2.918 -1.121,0 -2.222,-0.31 -3.182,-0.899 C 8.492,12.008 7.518,10.667 7.136,9.083 6.755,7.499 7.013,5.859 7.863,4.469 c 8.212,-13.42 9.153,-14.17 9.983,-14.836 0.4,-0.32 1.096,-0.876 9.516,-5.373 0.091,-0.859 0.181,-1.757 0.268,-2.743 0.129,-1.458 0.086,-2.543 -0.079,-3.347 0.143,-3.034 0.079,-5.427 0.079,-5.427 l -29.87,0 c 0,0 -0.187,14.562 2.24,27.257"
             style="fill:#e6e6e6;fill-opacity:1;fill-rule:nonzero;stroke:none"
             id="path404"
             inkscape:connector-curvature="0" />
        </g>
        <g
           id="g406"
           transform="translate(873.1309,599.1709)">
          <path
             d="m 0,0 c -1.52,1.086 -0.748,13.629 7.84,13.069 8.588,-0.56 7.656,-12.883 5.415,-15.682 -2.24,-2.8 -2.8,-4.294 -7.281,-4.294 C 5.413,-6.907 3.919,-2.799 0,0"
             style="fill:#e6e6e6;fill-opacity:1;fill-rule:nonzero;stroke:none"
             id="path408"
             inkscape:connector-curvature="0" />
        </g>
        <g
           id="g410"
           transform="translate(897.2061,513.3105)">
          <path
             d="m 0,0 c -0.491,0 -0.889,0.398 -0.889,0.891 l 0,31.131 c 0,2.797 2.946,5.561 5.097,7.58 0.627,0.587 1.168,1.096 1.439,1.43 1.261,1.56 1.441,4.538 0.816,6.339 -0.452,1.31 -1.204,2.123 -2.297,2.486 -1.156,0.389 -3.154,-0.342 -3.854,-0.868 -0.393,-0.292 -0.952,-0.214 -1.245,0.178 -0.296,0.393 -0.216,0.951 0.178,1.247 0.951,0.713 3.54,1.778 5.484,1.132 1.63,-0.544 2.778,-1.751 3.416,-3.593 C 8.938,45.662 8.738,42.027 7.029,39.913 6.683,39.484 6.127,38.964 5.425,38.304 3.619,36.61 0.89,34.049 0.89,32.022 l 0,-31.131 C 0.89,0.398 0.492,0 0,0"
             style="fill:#e6e6e6;fill-opacity:1;fill-rule:nonzero;stroke:none"
             id="path412"
             inkscape:connector-curvature="0" />
        </g>
        <g
           id="g414"
           transform="translate(906.7681,513.5332)">
          <path
             d="m 0,0 c -0.491,0 -0.889,0.397 -0.889,0.89 0,5.656 -1.811,8.006 -2.78,8.006 l -10.674,0 c -0.885,0 -1.595,-0.283 -2.168,-0.86 -0.813,-0.823 -1.771,-2.693 -1.725,-6.939 l 0.002,-0.207 c 0,-0.493 -0.398,-0.89 -0.89,-0.89 -0.492,0 -0.889,0.397 -0.889,0.89 l -0.002,0.186 c -0.042,3.903 0.711,6.666 2.24,8.209 0.911,0.922 2.066,1.389 3.432,1.389 l 10.674,0 C -1.473,10.674 0.89,7.614 0.89,0.89 0.89,0.397 0.492,0 0,0"
             style="fill:#e6e6e6;fill-opacity:1;fill-rule:nonzero;stroke:none"
             id="path416"
             inkscape:connector-curvature="0" />
        </g>
        <g
           id="g418"
           transform="translate(889.562,518.0918)">
          <path
             d="m 0,0 -3.669,0 -0.833,-5.226 5.448,0 L 0,0 Z"
             style="fill:#e6e6e6;fill-opacity:1;fill-rule:nonzero;stroke:none"
             id="path420"
             inkscape:connector-curvature="0" />
        </g>
        <g
           id="g422"
           transform="translate(899.0684,518.0918)">
          <path
             d="m 0,0 -3.668,0 -0.834,-5.226 5.447,0 L 0,0 Z"
             style="fill:#e6e6e6;fill-opacity:1;fill-rule:nonzero;stroke:none"
             id="path424"
             inkscape:connector-curvature="0" />
        </g>
        <g
           id="g426"
           transform="translate(908.4087,518.0918)">
          <path
             d="m 0,0 -3.669,0 -0.834,-5.226 5.447,0 L 0,0 Z"
             style="fill:#e6e6e6;fill-opacity:1;fill-rule:nonzero;stroke:none"
             id="path428"
             inkscape:connector-curvature="0" />
        </g>
        <g
           id="g430"
           transform="translate(884.4385,519.1162)">
          <path
             d="m 0,0 -4.881,-1.593 c -1.128,-0.368 -1.741,-1.579 -1.375,-2.706 0.368,-1.128 1.58,-1.742 2.707,-1.376 L -0.76,-4.766 0,0 Z"
             style="fill:#e6e6e6;fill-opacity:1;fill-rule:nonzero;stroke:none"
             id="path432"
             inkscape:connector-curvature="0" />
        </g>
        <g
           id="g434"
           transform="translate(980.459,538.8936)">
          <path
             d="m 0,0 10.071,0 -4.372,-20.557 -6.934,0 L 0,0 Z"
             style="fill:#e6e6e6;fill-opacity:1;fill-rule:nonzero;stroke:none"
             id="path436"
             inkscape:connector-curvature="0" />
        </g>
        <g
           id="g438"
           transform="translate(979.6143,515.1836)">
          <path
             d="m 0,0 c 0,-1.022 0.827,-1.85 1.849,-1.85 l 7.236,0 c 1.02,0 1.849,0.828 1.849,1.85 0,1.021 -0.829,1.85 -1.849,1.85 l -7.236,0 C 0.827,1.85 0,1.021 0,0"
             style="fill:#e6e6e6;fill-opacity:1;fill-rule:nonzero;stroke:none"
             id="path440"
             inkscape:connector-curvature="0" />
        </g>
        <g
           id="g442"
           transform="translate(1012.0137,556.4658)">
          <path
             d="M 0,0 C -1.215,0 -2.399,0.615 -3.075,1.729 L -20.05,29.687 c -1.03,1.696 -0.49,3.907 1.207,4.938 1.697,1.028 3.908,0.489 4.939,-1.208 L 3.069,5.46 C 4.1,3.764 3.559,1.553 1.862,0.522 1.279,0.168 0.636,0 0,0"
             style="fill:#e6e6e6;fill-opacity:1;fill-rule:nonzero;stroke:none"
             id="path444"
             inkscape:connector-curvature="0" />
        </g>
        <g
           id="g446"
           transform="translate(992.4326,572.8223)">
          <path
             d="m 0,0 c 0.536,-0.537 3.58,-1.4 5.499,0.42 l -7.333,12.081 c -0.72,1.186 -0.936,2.58 -0.606,3.927 0.33,1.347 1.164,2.486 2.35,3.206 0.813,0.493 1.743,0.753 2.691,0.753 0.694,0 1.365,-0.135 1.981,-0.388 -0.926,0.574 -2.093,0.867 -3.592,0.805 -3.963,-0.165 -12.879,-8.916 -15.685,-18.492 -2.807,-9.577 -3.962,-15.851 -4.788,-35.004 l 22.786,0 c 0,0 -1.488,20.144 -4.294,31.867 0,0 0.33,1.486 0.991,0.825"
             style="fill:#e6e6e6;fill-opacity:1;fill-rule:nonzero;stroke:none"
             id="path448"
             inkscape:connector-curvature="0" />
        </g>
        <g
           id="g450"
           transform="translate(999.4297,605.1914)">
          <path
             d="m 0,0 c 3.29,2.855 6.924,3.652 10.095,2.385 3.484,-1.395 5.349,-5.724 3.884,-11.172 -1.301,-4.838 -8.475,-5.78 -11.782,-5.391 0,0 -1.654,4.018 -6.245,3.977 0,0 0.398,7.032 4.048,10.201"
             style="fill:#e6e6e6;fill-opacity:1;fill-rule:nonzero;stroke:none"
             id="path452"
             inkscape:connector-curvature="0" />
        </g>
        <g
           id="g454"
           transform="translate(997.6973,605.5874)">
          <path
             d="m 0,0 c 0,0 0.779,1.353 1.865,1.701 0,0 -2.583,3.28 -6.923,2.297 -3.211,-0.728 -6.589,-3.196 -7.787,-10.385 0,0 2.262,8.184 12.845,6.387"
             style="fill:#e6e6e6;fill-opacity:1;fill-rule:nonzero;stroke:none"
             id="path456"
             inkscape:connector-curvature="0" />
        </g>
        <g
           id="g458"
           transform="translate(999.1182,514.8408)">
          <path
             d="m 0,0 -2.39,0.178 c 0,0 2.71,36.475 3.023,40.644 0.447,5.96 10.36,6.424 13.388,6.424 5.387,0 11.004,-1.915 11.406,-6.193 C 25.737,37.749 28.011,9.847 28.034,9.566 28.087,8.906 27.596,8.327 26.937,8.274 26.267,8.23 25.699,8.712 25.645,9.371 25.622,9.653 23.349,37.54 23.041,40.829 22.825,43.121 18.948,44.85 14.021,44.85 8.703,44.85 3.24,43.549 3.022,40.643 2.71,36.475 0,0 0,0"
             style="fill:#e6e6e6;fill-opacity:1;fill-rule:nonzero;stroke:none"
             id="path460"
             inkscape:connector-curvature="0" />
        </g>
        <g
           id="g462"
           transform="translate(1024.1855,540.7231)">
          <path
             d="m 0,0 -23.97,0 c -0.661,0 -1.197,0.537 -1.197,1.198 0,0.662 0.536,1.198 1.197,1.198 L 0,2.396 C 0.661,2.396 1.199,1.86 1.199,1.198 1.199,0.537 0.661,0 0,0"
             style="fill:#e6e6e6;fill-opacity:1;fill-rule:nonzero;stroke:none"
             id="path464"
             inkscape:connector-curvature="0" />
        </g>
        <g
           id="g466"
           transform="translate(1026.2178,519.6729)">
          <path
             d="m 0,0 c -1.265,0 -2.294,-1.029 -2.294,-2.294 0,-1.266 1.029,-2.294 2.294,-2.294 1.266,0 2.294,1.028 2.294,2.294 C 2.294,-1.029 1.266,0 0,0 m 0,-6.984 c -2.586,0 -4.69,2.104 -4.69,4.69 0,2.586 2.104,4.69 4.69,4.69 2.587,0 4.69,-2.104 4.69,-4.69 0,-2.586 -2.103,-4.69 -4.69,-4.69"
             style="fill:#e6e6e6;fill-opacity:1;fill-rule:nonzero;stroke:none"
             id="path468"
             inkscape:connector-curvature="0" />
        </g>
        <g
           id="g470"
           transform="translate(999.8437,518.5391)">
          <path
             d="m 0,0 -3.668,0 -0.835,-5.226 5.448,0 L 0,0 Z"
             style="fill:#e6e6e6;fill-opacity:1;fill-rule:nonzero;stroke:none"
             id="path472"
             inkscape:connector-curvature="0" />
        </g>
        <g
           id="g474"
           transform="translate(947.1509,542.5776)">
          <path
             d="m 0,0 -11.511,0 1.119,-22.224 8.793,0 L 0,0 Z"
             style="fill:#e6e6e6;fill-opacity:1;fill-rule:nonzero;stroke:none"
             id="path476"
             inkscape:connector-curvature="0" />
        </g>
        <g
           id="g478"
           transform="translate(937.2393,515.1582)">
          <path
             d="m 0,0 c 0,-1.016 0.823,-1.838 1.838,-1.838 l 7.195,0 c 1.014,0 1.838,0.822 1.838,1.838 0,1.016 -0.824,1.838 -1.838,1.838 l -7.195,0 C 0.823,1.838 0,1.016 0,0"
             style="fill:#e6e6e6;fill-opacity:1;fill-rule:nonzero;stroke:none"
             id="path480"
             inkscape:connector-curvature="0" />
        </g>
        <g
           id="g482"
           transform="translate(963.6152,552.5508)">
          <path
             d="m 0,0 c 1.127,0 2.215,0.608 2.776,1.673 0.808,1.533 0.221,3.429 -1.311,4.236 -5.033,2.653 -10.63,5.661 -12.01,6.488 -0.94,1.258 -4.133,6.305 -6.762,10.601 -0.904,1.477 -2.833,1.942 -4.311,1.038 -1.477,-0.904 -1.942,-2.834 -1.038,-4.311 C -15.814,8.545 -15.045,7.93 -14.584,7.562 -14.33,7.357 -13.553,6.737 -1.459,0.363 -0.992,0.116 -0.492,0 0,0"
             style="fill:#e6e6e6;fill-opacity:1;fill-rule:nonzero;stroke:none"
             id="path484"
             inkscape:connector-curvature="0" />
        </g>
        <g
           id="g486"
           transform="translate(932.4424,567.3579)">
          <path
             d="m 0,0 c 2.079,10.872 5.436,19.665 10.872,19.665 5.38,0 9.192,-17.225 9.269,-17.57 -1.272,1.984 -2.899,4.583 -4.493,7.187 -0.957,1.565 -2.625,2.499 -4.459,2.499 -0.96,0 -1.902,-0.266 -2.725,-0.769 C 7.273,10.283 6.438,9.135 6.111,7.778 5.785,6.42 6.006,5.017 6.734,3.827 c 7.033,-11.492 7.838,-12.135 8.548,-12.704 0.344,-0.275 0.94,-0.75 8.15,-4.602 0.078,-0.736 0.154,-1.504 0.23,-2.349 0.11,-1.249 0.073,-2.178 -0.069,-2.866 0.123,-2.599 0.069,-4.648 0.069,-4.648 l -25.58,0 c 0,0 -0.16,12.47 1.918,23.342"
             style="fill:#e6e6e6;fill-opacity:1;fill-rule:nonzero;stroke:none"
             id="path488"
             inkscape:connector-curvature="0" />
        </g>
        <g
           id="g490"
           transform="translate(945.5518,588.4614)">
          <path
             d="M 0,0 C -1.301,0.929 -0.639,11.671 6.715,11.191 14.069,10.711 13.27,0.159 11.352,-2.239 9.433,-4.637 8.953,-5.916 5.116,-5.916 4.636,-5.916 3.357,-2.398 0,0"
             style="fill:#e6e6e6;fill-opacity:1;fill-rule:nonzero;stroke:none"
             id="path492"
             inkscape:connector-curvature="0" />
        </g>
        <g
           id="g494"
           transform="translate(968.998,561.4424)">
          <path
             d="m 0,0 c -1.424,0.562 -2.742,0.561 -3.916,-0.005 -2.122,-1.021 -2.916,-3.531 -2.948,-3.638 l 1.675,-0.518 c 0.005,0.019 0.611,1.897 2.041,2.579 0.724,0.346 1.544,0.33 2.503,-0.049 2.374,-0.937 2.062,-2.601 1.127,-6.276 -0.17,-0.668 -0.347,-1.368 -0.507,-2.095 -1.198,-5.448 -8.163,-37.571 -8.235,-37.904 l 0.024,-0.005 c -0.012,-0.059 -0.035,-0.113 -0.035,-0.175 0,-0.485 0.392,-0.877 0.876,-0.877 0.417,0 0.75,0.298 0.839,0.688 l 0.011,-0.003 c 0.072,0.333 7.035,32.454 8.232,37.899 0.157,0.709 0.33,1.39 0.496,2.041 C 3.07,-4.844 3.91,-1.543 0,0"
             style="fill:#e6e6e6;fill-opacity:1;fill-rule:nonzero;stroke:none"
             id="path496"
             inkscape:connector-curvature="0" />
        </g>
      </g>
    </g>
  </g>
</svg>
