<?xml version="1.0" encoding="UTF-8" standalone="no"?>
<!-- Created with Inkscape (http://www.inkscape.org/) -->

<svg
   xmlns:dc="http://purl.org/dc/elements/1.1/"
   xmlns:cc="http://creativecommons.org/ns#"
   xmlns:rdf="http://www.w3.org/1999/02/22-rdf-syntax-ns#"
   xmlns:svg="http://www.w3.org/2000/svg"
   xmlns="http://www.w3.org/2000/svg"
   xmlns:sodipodi="http://sodipodi.sourceforge.net/DTD/sodipodi-0.dtd"
   xmlns:inkscape="http://www.inkscape.org/namespaces/inkscape"
   width="420"
   height="420"
   viewBox="0 0 420 420.00001"
   id="svg3358"
   version="1.1"
   inkscape:version="0.91 r13725"
   sodipodi:docname="asilo.svg">
  <defs
     id="defs3360" />
  <sodipodi:namedview
     id="base"
     pagecolor="#ffffff"
     bordercolor="#666666"
     borderopacity="1.0"
     inkscape:pageopacity="0.0"
     inkscape:pageshadow="2"
     inkscape:zoom="1"
     inkscape:cx="23"
     inkscape:cy="236.02083"
     inkscape:document-units="px"
     inkscape:current-layer="layer1"
     showgrid="false"
     units="px"
     inkscape:window-width="1366"
     inkscape:window-height="743"
     inkscape:window-x="0"
     inkscape:window-y="25"
     inkscape:window-maximized="1" />
  <metadata
     id="metadata3363">
    <rdf:RDF>
      <cc:Work
         rdf:about="">
        <dc:format>image/svg+xml</dc:format>
        <dc:type
           rdf:resource="http://purl.org/dc/dcmitype/StillImage" />
        <dc:title />
      </cc:Work>
    </rdf:RDF>
  </metadata>
  <g
     inkscape:label="Camada 1"
     inkscape:groupmode="layer"
     id="layer1"
     transform="translate(0,-632.36216)">
    <path
       d="m 208.54931,632.36411 c -7.22203,-0.0265 -14.24516,2.04522 -20.27251,5.85537 -6.01388,-3.80659 -13.00373,-5.85147 -20.23157,-5.85147 -10.56121,0 -20.50822,4.41316 -27.58832,11.91353 -6.03384,-3.82456 -13.10216,-5.92361 -20.33101,-5.92361 -14.23602,0 -26.864396,7.73827 -33.375434,19.87083 -1.828921,-0.26854 -3.680444,-0.40361 -5.547301,-0.40361 -20.917785,0 -37.936135,17.01836 -37.936135,37.93614 0,4.28678 0.70113,8.46054 2.066831,12.4049 -14.400757,5.41888 -24.529016,19.30201 -24.529016,35.50274 0,6.15962 1.500684,12.18118 4.316943,17.56611 -8.361913,7.10903 -13.301817,17.55076 -13.301817,28.85573 0,10.74491 4.427277,20.63172 11.907684,27.64291 -7.984558,7.06711 -12.837768,17.35726 -12.837768,28.43261 0,11.35289 5.09672,21.97816 13.631352,29.11115 -1.18201,3.86949 -1.823101,7.97272 -1.823101,12.22356 0,20.38868 14.631368,37.41752 33.942857,41.15923 l 0,33.69328 c 0,17.47557 7.179334,34.63484 19.699256,47.08099 12.40312,12.3292 28.708659,19.056 45.797889,18.9621 11.24109,-0.066 22.00231,-2.9422 31.59916,-8.392 11.52859,19.9254 32.70989,32.3576 56.28221,32.3576 23.5723,0 44.75359,-12.4312 56.28218,-32.3576 9.59687,5.4488 20.35808,8.3252 31.59916,8.392 l 0.38022,0 c 16.9894,0 33.10544,-6.7257 45.41572,-18.9641 12.51892,-12.44511 19.69927,-29.60538 19.69927,-47.08095 l 0,-33.69327 c 19.31147,-3.74072 33.94285,-20.77056 33.94285,-41.15923 0,-4.26382 -0.6429,-8.3792 -1.8309,-12.25867 8.51666,-7.12999 13.6021,-17.74312 13.6021,-29.07605 0,-11.07435 -4.85316,-21.3655 -12.83972,-28.4326 7.48241,-7.01219 11.91159,-16.9 11.91159,-27.64291 0,-11.29998 -4.94184,-21.74274 -13.30377,-28.85377 2.81726,-5.38593 4.31889,-11.40745 4.31889,-17.56808 0,-16.20073 -10.13116,-30.08581 -24.5329,-35.50468 1.36769,-3.94835 2.07072,-8.12116 2.07072,-12.40295 0,-20.91778 -17.01835,-37.93613 -37.93613,-37.93613 -1.86986,0 -3.72231,0.13311 -5.54924,0.40166 -6.51205,-12.13058 -19.14418,-19.86889 -33.38522,-19.86889 -7.34661,0 -14.33081,2.05274 -20.34269,5.89827 -7.08007,-7.4874 -17.02141,-11.88819 -27.57664,-11.88819 -7.22083,0 -14.2078,2.04484 -20.22765,5.85343 -6.02088,-3.80759 -13.0154,-5.85343 -20.24523,-5.85343 -0.49815,0 -0.98685,0.008 -1.47603,0.0292 -0.48298,-0.0206 -0.96531,-0.0313 -1.44678,-0.0331 z m -40.50408,15.97701 c 5.50374,0 10.76659,2.05162 14.82077,5.77933 3.05386,2.80727 7.74921,2.80913 10.80407,0.006 4.06516,-3.73072 9.34309,-5.78518 14.85781,-5.78518 0.32745,0 0.65332,0.005 0.98077,0.0254 0.32445,0.02 0.64762,0.02 0.96907,0 0.32944,-0.02 0.65897,-0.0254 0.99441,-0.0254 5.50874,0 10.77995,2.05546 14.84611,5.78518 3.05485,2.80328 7.74731,2.80328 10.80018,0 4.06516,-3.73072 9.32891,-5.78518 14.82466,-5.78518 7.9546,0 15.30978,4.32255 19.19423,11.27984 1.23993,2.22026 3.46227,3.7178 5.98603,4.03227 2.52375,0.31946 5.04523,-0.59136 6.79129,-2.43925 4.19394,-4.43853 9.85702,-6.88294 15.94776,-6.88294 9.75457,0 18.20581,6.27039 21.02904,15.60068 0.63593,2.10246 2.10948,3.85036 4.07518,4.83171 1.96568,0.98234 4.24812,1.1076 6.31165,0.35487 2.39796,-0.87652 4.92889,-1.32004 7.52053,-1.32004 12.11062,0 21.96302,9.85242 21.96302,21.96303 0,4.79892 -1.52729,9.36003 -4.41444,13.19457 -1.779,2.36303 -2.10601,5.51771 -0.85012,8.1952 1.25587,2.67849 3.88991,4.44327 6.84394,4.58603 11.7093,0.56804 20.88087,10.20157 20.88087,21.93182 0,5.31206 -1.93096,10.44784 -5.44006,14.45808 -1.62227,1.85388 -2.29906,4.35193 -1.83285,6.76986 0.46621,2.41893 2.02415,4.48672 4.21946,5.60384 7.4265,3.78164 12.03832,11.2881 12.03832,19.58813 0,9.07672 -5.4613,17.09796 -13.91407,20.43435 -3.09579,1.22194 -5.10889,4.23409 -5.05399,7.56149 0.0549,3.32739 2.16885,6.27278 5.30357,7.3899 8.72831,3.11275 14.59263,11.42737 14.59263,20.68977 0,5.43186 -2.01816,10.57978 -5.51026,14.53413 -6.74764,-8.09637 -16.48507,-13.61498 -27.50252,-14.8539 -2.61061,-28.02482 -6.77156,-55.91037 -12.48095,-83.42206 -1.24391,-5.99191 -6.13908,-10.63631 -12.17092,-11.55476 -0.16971,-0.026 -0.34111,-0.0539 -0.51282,-0.0839 -6.30039,-1.11013 -12.55551,2.06559 -15.57143,7.90077 -3.79162,7.33964 -11.27466,11.89793 -19.52378,11.89793 -6.09174,0 -11.75767,-2.44246 -15.95362,-6.88099 -1.74606,-1.84689 -4.26459,-2.75572 -6.78934,-2.43925 -2.52275,0.31447 -4.74611,1.81201 -5.98602,4.03227 -3.88546,6.95629 -11.23683,11.27788 -19.18645,11.27788 -5.49676,0 -10.76339,-2.05546 -14.82855,-5.78518 -3.05486,-2.80328 -7.74631,-2.80232 -10.80018,0.002 -4.06117,3.72872 -9.33534,5.78322 -14.84805,5.78322 -0.36638,0 -0.72852,-0.0123 -1.09191,-0.0293 -0.25457,-0.012 -0.51076,-0.012 -0.76433,0 -0.36139,0.017 -0.72554,0.0293 -1.09191,0.0293 -5.51273,0 -10.78495,-2.0545 -14.84612,-5.78322 -3.05486,-2.80528 -7.74727,-2.80524 -10.80212,-0.002 -4.06516,3.72972 -9.3318,5.78519 -14.82856,5.78518 -7.94961,0 -15.30199,-4.32159 -19.18644,-11.27788 -1.23892,-2.22026 -3.46132,-3.7178 -5.98408,-4.03227 -2.52175,-0.31647 -5.04423,0.59236 -6.79129,2.43925 -4.19694,4.43753 -9.86187,6.88099 -15.95361,6.88099 -8.24912,0 -15.72922,-4.55829 -19.52183,-11.89793 -3.014908,-5.83418 -9.272803,-9.00891 -15.581182,-7.90077 -0.162727,0.029 -0.326681,0.0569 -0.489407,0.0819 -6.04682,0.92045 -10.942608,5.56838 -12.186514,11.57427 l -0.03314,0.16183 c -5.683432,27.45278 -9.82482,55.27871 -12.422447,83.24463 -11.021445,1.2439 -20.761737,6.77185 -27.508379,14.8812 -3.502104,-3.95934 -5.523901,-9.11759 -5.523901,-14.56143 0,-9.2654 5.864358,-17.58101 14.590667,-20.68978 3.135721,-1.11712 5.249622,-4.0625 5.305528,-7.3899 0.05591,-3.32839 -1.959162,-6.34054 -5.055948,-7.56149 -8.450773,-3.33339 -13.912119,-11.35463 -13.912119,-20.43435 0,-8.30402 4.611876,-15.81047 12.036377,-19.58811 2.196302,-1.11712 3.754189,-3.18392 4.221403,-5.60385 0.467213,-2.41992 -0.208629,-4.91793 -1.830898,-6.77181 -3.509092,-4.01124 -5.442008,-9.14602 -5.442008,-14.45808 0,-11.73125 9.173516,-21.36478 20.882804,-21.93182 2.956023,-0.14376 5.591017,-1.9114 6.845904,-4.59188 1.254888,-2.68149 0.925063,-5.83512 -0.857935,-8.19714 -2.883146,-3.81857 -4.408588,-8.37984 -4.408588,-13.18874 0,-12.11061 9.852413,-21.96302 21.963025,-21.96302 2.58365,0 5.116396,0.44543 7.528336,1.32395 2.061529,0.75273 4.344047,0.62162 6.307741,-0.36073 1.963694,-0.98134 3.435346,-2.72829 4.071276,-4.82976 2.778315,-9.18553 11.420495,-15.59873 21.017335,-15.59873 6.09777,0 11.76653,2.44246 15.95946,6.88099 1.74706,1.84889 4.26757,2.76066 6.79132,2.4412 2.52375,-0.31447 4.7461,-1.81202 5.98601,-4.03227 3.88445,-6.95829 11.23492,-11.27984 19.18254,-11.27984 z M 332.4813,767.99515 c 9.91531,48.56724 14.94166,98.30474 14.94166,147.8663 l 0,46.49206 c 0,13.25368 -5.46349,26.28423 -14.98846,35.75231 -9.36424,9.30938 -21.5907,14.37658 -34.44006,14.31768 -10.95955,-0.064 -21.31513,-3.6691 -29.94958,-10.4277 -1.98267,-1.5514 -4.57972,-2.07933 -7.01164,-1.4214 -2.43089,0.6589 -4.40733,2.4263 -5.33477,4.7674 -7.4744,18.8602 -25.40603,31.0473 -45.6809,31.0473 -20.27488,0 -38.20649,-12.1871 -45.68091,-31.0473 -0.92743,-2.3411 -2.90487,-4.1085 -5.33477,-4.7674 -0.68885,-0.1867 -1.39045,-0.2768 -2.08829,-0.2768 -1.76502,0 -3.50173,0.5861 -4.92334,1.6982 -8.63347,6.7586 -18.99103,10.3638 -29.94958,10.4277 -12.88831,0.059 -25.075829,-5.0073 -34.440065,-14.31574 C 78.075631,988.6397 72.612158,975.60618 72.612158,962.3535 l 0,-46.67924 c 0,-49.49567 5.012291,-99.16688 14.902641,-147.67521 6.826508,11.50263 19.125711,18.5586 32.615011,18.5586 7.22384,0 14.28836,-2.09906 20.3232,-5.92363 7.08109,7.50038 17.03003,11.91159 27.59222,11.91159 7.22086,0 14.2088,-2.04488 20.22767,-5.85147 6.01987,3.80659 13.01334,5.85148 20.24716,5.85147 0.49417,0 0.98586,-0.009 1.47603,-0.0292 0.48918,0.02 0.97993,0.0292 1.47409,0.0292 7.23381,0 14.22823,-2.04583 20.24911,-5.85342 6.01787,3.80659 13.00683,5.85344 20.22766,5.85342 10.56322,0 20.51211,-4.41021 27.59418,-11.91159 6.03485,3.82457 13.09936,5.92363 20.3232,5.92363 13.49229,0 25.79047,-7.05687 32.61697,-18.5625 z m 28.9883,94.27293 c 11.39782,2.73739 19.89621,13.00944 19.89621,25.23486 9.9e-4,11.53458 -7.56471,21.33028 -17.99315,24.70062 -0.0809,-16.64698 -0.71805,-33.30646 -1.90306,-49.93548 z m -302.915805,0.002 c -1.181012,16.62801 -1.812529,33.28754 -1.889399,49.93352 -10.428444,-3.37033 -17.993149,-13.16797 -17.993149,-24.70256 0,-12.22042 8.491724,-22.48858 19.882548,-25.23096 z m 170.238795,97.41803 c -2.04405,0 -4.08738,0.78043 -5.64674,2.33981 -3.62989,3.62989 -8.45609,5.62918 -13.58846,5.6292 -5.13235,0 -9.95661,-1.99931 -13.58649,-5.6292 -1.55889,-1.55938 -3.60294,-2.33785 -5.64675,-2.33785 -2.04381,0 -4.08881,0.77848 -5.64869,2.33785 -3.11875,3.11875 -3.11975,8.17474 0,11.29349 6.64581,6.64681 15.48277,10.30686 24.88194,10.30686 9.39918,0 18.23708,-3.66105 24.88389,-10.30686 3.11975,-3.11875 3.11975,-8.17474 0,-11.29349 -1.55987,-1.55938 -3.60465,-2.33981 -5.6487,-2.33981 z"
       id="icone"
       inkscape:connector-curvature="0"
       style="fill:#e6e6e6"
       sodipodi:nodetypes="ccscscsscscscscscscccsccscscscscscscsscscscsccccccsccsccsccsscccsscccscccssscsccccccscccsccsccsccscccscccccccssscscscscccsscccsccccccsscccccsccsccssscscscscscscscccccccscssscsccscss" />
    <path
       sodipodi:nodetypes="sssssssssssccsscccsscssccscs"
       style="fill:#e6e6e6"
       inkscape:connector-curvature="0"
       id="path3358"
       d="m 287.31223,883.20716 c 7.71899,-1e-5 13.97646,-6.25748 13.97646,-13.97647 0,-7.71899 -6.25747,-13.97646 -13.97646,-13.97647 -7.71899,0 -13.97647,6.25748 -13.97647,13.97647 0,7.71899 6.25748,13.97647 13.97647,13.97647 z m -154.62446,0 c 7.71899,0 13.97647,-6.25748 13.97647,-13.97647 0,-7.71899 -6.25748,-13.97647 -13.97647,-13.97647 -7.71899,0 -13.97647,6.25748 -13.97647,13.97647 0,7.71899 6.25748,13.97647 13.97647,13.97647 z m 173.85966,-33.76542 c 2.0438,0 4.08736,-0.78043 5.64674,-2.33981 3.11975,-3.11875 3.11975,-8.17474 0,-11.29349 -6.86146,-6.86146 -15.87011,-10.29127 -24.88194,-10.29127 -9.00982,0 -18.02248,3.43182 -24.88193,10.29127 -3.11875,3.11875 -3.11975,8.17474 0,11.29349 3.11875,3.11975 8.17567,3.11875 11.29542,0 7.49241,-7.49239 19.68357,-7.49239 27.17496,0 1.55937,1.55938 3.60294,2.33981 5.64675,2.33981 z m -154.62447,0 c 2.04394,-1.3e-4 4.08689,-0.78043 5.64676,-2.33981 3.11874,-3.11975 3.11874,-8.17474 0,-11.29349 -6.86047,-6.86045 -15.87012,-10.29127 -24.88195,-10.29127 -9.01182,0 -18.02248,3.43082 -24.88194,10.29127 -3.11975,3.11875 -3.11975,8.17474 0,11.29349 3.11876,3.11875 8.17473,3.11875 11.29348,0 7.49239,-7.49239 19.68454,-7.49239 27.17692,0 1.55938,1.55987 3.60281,2.33993 5.64673,2.33981 z" />
  </g>
</svg>
