<?xml version="1.0" encoding="UTF-8" standalone="no"?>
<!-- Generator: Adobe Illustrator 19.0.0, SVG Export Plug-In . SVG Version: 6.00 Build 0)  -->

<svg
   xmlns:dc="http://purl.org/dc/elements/1.1/"
   xmlns:cc="http://creativecommons.org/ns#"
   xmlns:rdf="http://www.w3.org/1999/02/22-rdf-syntax-ns#"
   xmlns:svg="http://www.w3.org/2000/svg"
   xmlns="http://www.w3.org/2000/svg"
   xmlns:sodipodi="http://sodipodi.sourceforge.net/DTD/sodipodi-0.dtd"
   xmlns:inkscape="http://www.inkscape.org/namespaces/inkscape"
   version="1.1"
   id="Capa_1"
   x="0px"
   y="0px"
   viewBox="0 0 463 463"
   style="enable-background:new 0 0 463 463;"
   xml:space="preserve"
   inkscape:version="0.91 r13725"
   sodipodi:docname="canteiros.svg"><metadata
     id="metadata39"><rdf:RDF><cc:Work
         rdf:about=""><dc:format>image/svg+xml</dc:format><dc:type
           rdf:resource="http://purl.org/dc/dcmitype/StillImage" /></cc:Work></rdf:RDF></metadata><defs
     id="defs37" /><sodipodi:namedview
     pagecolor="#ffffff"
     bordercolor="#666666"
     borderopacity="1"
     objecttolerance="10"
     gridtolerance="10"
     guidetolerance="10"
     inkscape:pageopacity="0"
     inkscape:pageshadow="2"
     inkscape:window-width="1366"
     inkscape:window-height="719"
     id="namedview35"
     showgrid="false"
     inkscape:zoom="0.50971922"
     inkscape:cx="-119.67373"
     inkscape:cy="231.5"
     inkscape:window-x="0"
     inkscape:window-y="25"
     inkscape:window-maximized="1"
     inkscape:current-layer="Capa_1" /><path
     d="m 460.803,114.197 -32,-32 C 427.397,80.79 425.489,80 423.5,80 L 408.556,80 133.712,1.045 C 133.623,1.019 133.533,1.005 133.444,0.982 131.568,0.345 129.56,0 127.476,0 c -4.077,0 -7.875,1.321 -10.942,3.62 -0.219,0.153 -0.433,0.317 -0.64,0.497 l -0.311,0.271 c -0.068,0.058 -0.135,0.116 -0.202,0.176 L 28.694,80 7.5,80 C 3.358,80 0,83.358 0,87.5 l 0,64 c 0,4.142 3.358,7.5 7.5,7.5 l 48,0 c 4.142,0 7.5,-3.358 7.5,-7.5 l 0,-24.5 25,0 0,289 -8.5,0 c -4.142,0 -7.5,3.358 -7.5,7.5 l 0,32 c 0,4.142 3.358,7.5 7.5,7.5 l 96,0 c 4.142,0 7.5,-3.358 7.5,-7.5 l 0,-32 c 0,-4.142 -3.358,-7.5 -7.5,-7.5 l -8.5,0 0,-209 27.383,0 c 11.163,0 20.854,-7.945 23.043,-18.892 L 229.649,127 384,127 l 0,24.5 c 0,10.336 6.71,19.128 16,22.266 l 0,55.104 -30.356,37.946 c -1.064,1.33 -1.644,2.982 -1.644,4.685 l 0,64 c 0,4.142 3.358,7.5 7.5,7.5 l 64,0 c 4.142,0 7.5,-3.358 7.5,-7.5 l 0,-64 c 0,-1.703 -0.58,-3.355 -1.644,-4.685 L 415,228.869 l 0,-55.104 c 9.29,-3.138 16,-11.93 16,-22.266 l 0,-24.499 24.5,0 c 3.034,0 5.768,-1.827 6.929,-4.63 1.161,-2.803 0.519,-6.028 -1.626,-8.173 z M 127.524,15 c 1.411,0 2.679,0.944 3.084,2.295 L 149.42,80 105.58,80 124.391,17.295 C 124.797,15.944 126.065,15 127.524,15 Z M 165.08,80 147.241,20.538 354.229,80 165.08,80 Z M 103.478,34.806 89.92,80 55.5,80 51.543,80 103.478,34.806 Z M 48,144 l -33,0 0,-49 33,0 0,49 z m 55,-6.003 15.694,25.503 -15.694,25.503 0,-51.006 z m 24.5,143.813 18.579,30.19 -37.157,0 18.578,-30.19 z m -24.5,11.193 0,-51.005 15.694,25.503 L 103,293.003 Z M 136.306,267.5 152,241.997 152,293.002 136.306,267.5 Z M 127.5,253.19 108.921,223 146.078,223 127.5,253.19 Z M 146.079,327 127.5,357.19 108.921,327 l 37.158,0 z M 152,189.003 136.306,163.5 152,137.997 l 0,51.006 z M 146.079,208 108.922,208 127.501,177.81 146.079,208 Z M 118.694,371.5 103,397.003 l 0,-51.005 15.694,25.502 z m 8.806,14.31 18.579,30.19 -37.157,0 18.578,-30.19 z M 136.306,371.5 152,345.997 152,397.002 136.306,371.5 Z M 127.5,149.19 113.845,127 141.156,127 127.5,149.19 Z M 168,448 l -81,0 0,-17 81,0 0,17 z m 26.383,-256 -27.383,0 0,-41 42.551,0 -6.833,34.167 c -0.792,3.96 -4.297,6.833 -8.335,6.833 z m 18.168,-56 -45.551,0 0,-9 47.351,0 -1.8,9 z M 407.5,243.506 423.895,264 391.104,264 407.5,243.506 Z M 383,328 l 0,-49 49,0 0,49 -49,0 z m 33,-176.5 c 0,4.687 -3.813,8.5 -8.5,8.5 -4.687,0 -8.5,-3.813 -8.5,-8.5 l 0,-24.5 17,0 0,24.5 z M 63,112 l 0,-17 357.394,0 17,17 L 63,112 Z"
     id="icone"
     inkscape:connector-curvature="0"
     style="fill:#e6e6e6" /><g
     id="g5"
     style="fill:#e6e6e6" /><g
     id="g7"
     style="fill:#e6e6e6" /><g
     id="g9"
     style="fill:#e6e6e6" /><g
     id="g11"
     style="fill:#e6e6e6" /><g
     id="g13"
     style="fill:#e6e6e6" /><g
     id="g15"
     style="fill:#e6e6e6" /><g
     id="g17"
     style="fill:#e6e6e6" /><g
     id="g19"
     style="fill:#e6e6e6" /><g
     id="g21"
     style="fill:#e6e6e6" /><g
     id="g23"
     style="fill:#e6e6e6" /><g
     id="g25"
     style="fill:#e6e6e6" /><g
     id="g27"
     style="fill:#e6e6e6" /><g
     id="g29"
     style="fill:#e6e6e6" /><g
     id="g31"
     style="fill:#e6e6e6" /><g
     id="g33"
     style="fill:#e6e6e6" /></svg>