<?xml version="1.0" encoding="UTF-8" standalone="no"?>
<!-- Generator: Adobe Illustrator 16.0.0, SVG Export Plug-In . SVG Version: 6.00 Build 0)  -->

<svg
   xmlns:dc="http://purl.org/dc/elements/1.1/"
   xmlns:cc="http://creativecommons.org/ns#"
   xmlns:rdf="http://www.w3.org/1999/02/22-rdf-syntax-ns#"
   xmlns:svg="http://www.w3.org/2000/svg"
   xmlns="http://www.w3.org/2000/svg"
   xmlns:sodipodi="http://sodipodi.sourceforge.net/DTD/sodipodi-0.dtd"
   xmlns:inkscape="http://www.inkscape.org/namespaces/inkscape"
   version="1.1"
   id="Capa_1"
   x="0px"
   y="0px"
   width="400"
   height="400"
   viewBox="0 0 399.99999 399.99999"
   xml:space="preserve"
   inkscape:version="0.91 r13725"
   sodipodi:docname="cigano.svg"><metadata
     id="metadata47"><rdf:RDF><cc:Work
         rdf:about=""><dc:format>image/svg+xml</dc:format><dc:type
           rdf:resource="http://purl.org/dc/dcmitype/StillImage" /><dc:title></dc:title></cc:Work></rdf:RDF></metadata><defs
     id="defs45" /><sodipodi:namedview
     pagecolor="#ffffff"
     bordercolor="#666666"
     borderopacity="1"
     objecttolerance="10"
     gridtolerance="10"
     guidetolerance="10"
     inkscape:pageopacity="0"
     inkscape:pageshadow="2"
     inkscape:window-width="1366"
     inkscape:window-height="743"
     id="namedview43"
     showgrid="false"
     inkscape:zoom="0.53712537"
     inkscape:cx="-83.779323"
     inkscape:cy="219.688"
     inkscape:window-x="0"
     inkscape:window-y="25"
     inkscape:window-maximized="1"
     inkscape:current-layer="Capa_1" /><g
     id="g3"
     transform="matrix(0.89014842,0,0,0.89014842,4.4450739,6.4454821)"><path
       d="m 219.688,119.731 c 121.327,0 219.688,21.424 219.688,47.858 0,26.429 -98.361,47.853 -219.688,47.853 C 98.358,215.443 0,194.019 0,167.59 0,141.155 98.358,119.731 219.688,119.731 Z"
       id="path5"
       style="fill:none;stroke:#e6e6e6;stroke-width:8.98726559;stroke-miterlimit:4;stroke-dasharray:none"
       inkscape:connector-curvature="0" /><g
       id="g7"
       style="fill:#e6e6e6"><path
         d="m 5.072,250.752 c 0,0 0,6.705 0,14.98 0,8.263 5.999,18.674 13.864,22.309 26.667,12.303 92.916,35.37 208.725,31.078 112.372,-4.148 172.479,-22.51 197.47,-32.545 8.051,-3.226 14.246,-13.637 14.246,-22.309 l 0,-20.505 c -26.172,14.242 -86.295,36.98 -203.741,36.98 -116.834,0 -194.065,-18.566 -230.564,-29.988 z m 47.616,37.931 C 30.455,283.838 28.523,267.404 28.523,267.404 l 58.007,13.06 c -0.011,-10e-4 -11.611,13.048 -33.842,8.219 z m 179.08,14.996 c -21.265,-0.489 -32.14,-13.938 -32.14,-13.938 l 64.287,0 c 0.008,-10e-4 -10.88,14.414 -32.147,13.938 z m 163.788,-18.875 c -22.25,4.829 -33.839,-8.22 -33.839,-8.22 l 58.003,-13.048 c 0,0 -1.932,16.439 -24.164,21.268 z"
         id="path9"
         inkscape:connector-curvature="0"
         style="fill:#e6e6e6" /><path
         d="m 235.635,257.188 c 145.843,0 197.237,-36.163 203.741,-41.251 l 0,-24.525 c -32.904,30.575 -152.058,39.251 -219.688,39.251 -64.51,0 -175.882,-7.887 -214.616,-35.129 l 0,30.36 c 30.74,10.223 108.942,31.294 230.563,31.294 z m 149.537,-34.219 c 6.641,-0.613 12.283,1.579 12.592,4.905 0.304,3.326 -4.833,6.516 -11.485,7.113 -6.641,0.612 -12.283,-1.579 -12.588,-4.89 -0.309,-3.326 4.829,-6.515 11.481,-7.128 z m -153.557,16.25 c 6.692,-0.16 12.159,2.393 12.235,5.734 0.084,3.335 -5.258,6.164 -11.935,6.332 -6.654,0.172 -12.128,-2.396 -12.221,-5.734 -0.087,-3.343 5.253,-6.164 11.921,-6.332 z M 66.778,225.866 c 6.654,0.629 11.79,3.803 11.483,7.129 -0.307,3.326 -5.949,5.511 -12.583,4.89 -6.642,-0.598 -11.792,-3.787 -11.485,-7.113 0.298,-3.327 5.941,-5.519 12.585,-4.906 z"
         id="path11"
         inkscape:connector-curvature="0"
         style="fill:#e6e6e6" /></g></g><g
     id="g13"
     transform="translate(0,-39.376001)" /><g
     id="g15"
     transform="translate(0,-39.376001)" /><g
     id="g17"
     transform="translate(0,-39.376001)" /><g
     id="g19"
     transform="translate(0,-39.376001)" /><g
     id="g21"
     transform="translate(0,-39.376001)" /><g
     id="g23"
     transform="translate(0,-39.376001)" /><g
     id="g25"
     transform="translate(0,-39.376001)" /><g
     id="g27"
     transform="translate(0,-39.376001)" /><g
     id="g29"
     transform="translate(0,-39.376001)" /><g
     id="g31"
     transform="translate(0,-39.376001)" /><g
     id="g33"
     transform="translate(0,-39.376001)" /><g
     id="g35"
     transform="translate(0,-39.376001)" /><g
     id="g37"
     transform="translate(0,-39.376001)" /><g
     id="g39"
     transform="translate(0,-39.376001)" /><g
     id="g41"
     transform="translate(0,-39.376001)" /></svg>