<?xml version="1.0" encoding="UTF-8" standalone="no"?>
<!-- Generator: Adobe Illustrator 19.0.0, SVG Export Plug-In . SVG Version: 6.00 Build 0)  -->

<svg
   xmlns:dc="http://purl.org/dc/elements/1.1/"
   xmlns:cc="http://creativecommons.org/ns#"
   xmlns:rdf="http://www.w3.org/1999/02/22-rdf-syntax-ns#"
   xmlns:svg="http://www.w3.org/2000/svg"
   xmlns="http://www.w3.org/2000/svg"
   xmlns:sodipodi="http://sodipodi.sourceforge.net/DTD/sodipodi-0.dtd"
   xmlns:inkscape="http://www.inkscape.org/namespaces/inkscape"
   version="1.1"
   id="Capa_1"
   x="0px"
   y="0px"
   viewBox="0 0 470 470"
   style="enable-background:new 0 0 470 470;"
   xml:space="preserve"
   inkscape:version="0.91 r13725"
   sodipodi:docname="circo_caminhoneiro.svg"><metadata
     id="metadata41"><rdf:RDF><cc:Work
         rdf:about=""><dc:format>image/svg+xml</dc:format><dc:type
           rdf:resource="http://purl.org/dc/dcmitype/StillImage" /></cc:Work></rdf:RDF></metadata><defs
     id="defs39"><clipPath
       clipPathUnits="userSpaceOnUse"
       id="clipPath246"><path
         d="m 0,1080 1920,0 L 1920,0 0,0 0,1080 Z"
         id="path248"
         inkscape:connector-curvature="0" /></clipPath></defs><sodipodi:namedview
     pagecolor="#ffffff"
     bordercolor="#666666"
     borderopacity="1"
     objecttolerance="10"
     gridtolerance="10"
     guidetolerance="10"
     inkscape:pageopacity="0"
     inkscape:pageshadow="2"
     inkscape:window-width="1366"
     inkscape:window-height="655"
     id="namedview37"
     showgrid="false"
     inkscape:zoom="0.50212766"
     inkscape:cx="-343.53814"
     inkscape:cy="235"
     inkscape:window-x="0"
     inkscape:window-y="25"
     inkscape:window-maximized="1"
     inkscape:current-layer="g3" /><g
     id="g3"><g
       transform="matrix(2.5231281,0,0,-2.5231281,-1253.0148,1680.2877)"
       id="g242"><g
         id="g244"
         clip-path="url(#clipPath246)"><g
           id="g250"
           transform="translate(589.1172,617.1094)"><path
             d="m 0,0 c 21.151,-30.506 71.995,-49.624 71.995,-49.624 l -141.956,0 c 0,0 -2.156,-7.485 -0.656,-9.152 1.5,-1.667 3.655,-1.351 4.588,0.253 0,0 1.896,-3.821 6.183,-3.821 4.287,0 6.824,4.112 6.824,4.112 0,0 3.062,-4.491 8.341,-4.491 5.279,0 7.408,4.433 7.408,4.433 0,0 3.383,-4.287 7.845,-4.287 4.462,0 7.407,4.637 7.407,4.637 0,0 2.655,-3.85 8.633,-3.85 4.375,0 6.737,4.433 6.737,4.433 0,0 2.946,-4.288 8.283,-4.288 4.17,0 5.745,4.608 5.745,4.608 0,0 3.005,-5.045 8.691,-5.045 4.433,0 6.911,4.929 6.911,4.929 0,0 2.101,-4.812 7.117,-4.812 5.015,0 7.028,4.958 7.028,4.958 0,0 2.975,-4.987 7.845,-4.987 4.87,0 6.27,4.812 6.27,4.812 0,0 2.772,-4.258 7.525,-4.258 4.753,0 5.57,3.908 5.57,3.908 0,0 3.354,-4.141 5.745,-1.692 2.391,2.45 1.924,8.982 1.808,9.566"
             style="fill:none;stroke:#e6e6e6;stroke-width:2;stroke-linecap:round;stroke-linejoin:round;stroke-miterlimit:10;stroke-dasharray:none;stroke-opacity:1"
             id="path252"
             inkscape:connector-curvature="0" /></g><g
           id="g254"
           transform="translate(548.5913,567.624)"><path
             d="m 0,0 c 0,0 9.241,5.354 23.404,21.676 10.734,12.371 15.01,22.287 16.246,26.34 0.214,0.701 0.205,0.959 0.076,1.814 C 21.677,19.258 -29.841,0.626 -29.841,0.626 L 0,0 Z"
             style="fill:#e6e6e6;fill-opacity:1;fill-rule:nonzero;stroke:none"
             id="path256"
             inkscape:connector-curvature="0" /></g><g
           id="g258"
           transform="translate(572.2549,567.6245)"><path
             d="m 0,0 c 0,0 13.73,24.44 16.149,49.312 0,0 0.864,1.727 0.864,-0.691 l 0,-48.362 L 0,0 Z"
             style="fill:#e6e6e6;fill-opacity:1;fill-rule:nonzero;stroke:none"
             id="path260"
             inkscape:connector-curvature="0" /></g><g
           id="g262"
           transform="translate(588.7666,617.124)"><path
             d="m 0,0 c 0,0 7.928,-31.968 21.659,-48.981 l 26.081,0 c 0,0 -17.859,8.635 -33.853,29.017 C -0.776,-1.279 0,0 0,0"
             style="fill:#e6e6e6;fill-opacity:1;fill-rule:nonzero;stroke:none"
             id="path264"
             inkscape:connector-curvature="0" /></g><g
           id="g266"
           transform="translate(589.1172,617.1094)"><path
             d="M 0,0 0,12.298"
             style="fill:none;stroke:#e6e6e6;stroke-width:2;stroke-linecap:round;stroke-linejoin:round;stroke-miterlimit:10;stroke-dasharray:none;stroke-opacity:1"
             id="path268"
             inkscape:connector-curvature="0" /></g><g
           id="g270"
           transform="translate(591.25,621.25)"><path
             d="m 0,0 0,7.687 c 0,0 24.562,-2.312 25.937,-2.5 C 27.312,5 28.062,4 25.937,3.563 23.812,3.125 0,0 0,0"
             style="fill:#e6e6e6;fill-opacity:1;fill-rule:nonzero;stroke:none"
             id="path272"
             inkscape:connector-curvature="0" /></g><g
           id="g274"
           transform="translate(610.1689,515.21)"><path
             d="m 0,0 c 0,0 -11.919,19.415 -12.919,43.415 0,0 -2.877,-3.16 -6.501,-3.16 -3.624,0 -5.999,2.535 -5.999,2.535 0,0 2.02,-20.894 -12.23,-42.769 0,0 7.355,6.394 12.855,17.519 4.807,9.723 4,17.625 5.25,17.625 1.25,0 2.419,-8.349 6.75,-17.125 C -8.044,8.415 0,0 0,0"
             style="fill:#e6e6e6;fill-opacity:1;fill-rule:nonzero;stroke:none"
             id="path276"
             inkscape:connector-curvature="0" /></g><g
           id="g278"
           transform="translate(572.5,556.125)"><path
             d="m 0,0 c 0,0 -1.125,-29.5 -1.625,-40.375 l -13.375,0 c 0,0 1.5,25.375 1.125,38.25 0,0 6.5,1.625 8.375,4.75 0,0 2.5,-2.5 5.5,-2.625"
             style="fill:#e6e6e6;fill-opacity:1;fill-rule:nonzero;stroke:none"
             id="path280"
             inkscape:connector-curvature="0" /></g><g
           id="g282"
           transform="translate(609.5,556.75)"><path
             d="m 0,0 c 0,0 -0.25,-28 2.5,-41.125 l 13,0 c 0,0 -2.75,18.125 -2.5,39.875 0,0 -4.5,-1.25 -6.625,0.75 C 4.25,1.5 2.597,3.207 2.597,3.207 L 0,0 Z"
             style="fill:#e6e6e6;fill-opacity:1;fill-rule:nonzero;stroke:none"
             id="path284"
             inkscape:connector-curvature="0" /></g><g
           id="g286"
           transform="translate(543.625,515.625)"><path
             d="m 0,0 c 0,0 1.125,22.25 1.375,38.375 0,0 -5.25,-1.25 -8.5,5 0,0 -1.625,-2 -5,-4.25 0,0 -0.75,-25.25 -1.625,-39.375 L 0,0 Z"
             style="fill:#e6e6e6;fill-opacity:1;fill-rule:nonzero;stroke:none"
             id="path288"
             inkscape:connector-curvature="0" /></g><g
           id="g290"
           transform="translate(635.125,554.875)"><path
             d="m 0,0 c 0,0 -1,-21.625 2.5,-39.125 l 11.5,0 c 0,0 -2.5,19.5 -2.375,39.875 0,0 -5.912,1.979 -6.394,4.302 C 5.231,5.052 4.25,2 0,0"
             style="fill:#e6e6e6;fill-opacity:1;fill-rule:nonzero;stroke:none"
             id="path292"
             inkscape:connector-curvature="0" /></g><g
           id="g294"
           transform="translate(662.75,516.25)"><path
             d="M 0,0 C 0,0 -4.232,23.896 -3.554,41.636"
             style="fill:none;stroke:#e6e6e6;stroke-width:2;stroke-linecap:round;stroke-linejoin:round;stroke-miterlimit:10;stroke-dasharray:none;stroke-opacity:1"
             id="path296"
             inkscape:connector-curvature="0" /></g><g
           id="g298"
           transform="translate(520.375,556.875)"><path
             d="M 0,0 C 0,0 0.875,-18.5 -2.875,-40.625"
             style="fill:none;stroke:#e6e6e6;stroke-width:2;stroke-linecap:round;stroke-linejoin:round;stroke-miterlimit:10;stroke-dasharray:none;stroke-opacity:1"
             id="path300"
             inkscape:connector-curvature="0" /></g><g
           id="g302"
           transform="translate(518.125,566.25)"><path
             d="m 0,0 -18.75,-50 -0.875,5.375"
             style="fill:none;stroke:#e6e6e6;stroke-width:1;stroke-linecap:round;stroke-linejoin:round;stroke-miterlimit:10;stroke-dasharray:none;stroke-opacity:1"
             id="path304"
             inkscape:connector-curvature="0" /></g><g
           id="g306"
           transform="translate(661.375,566.25)"><path
             d="m 0,0 18.75,-50 0.875,5.375"
             style="fill:none;stroke:#e6e6e6;stroke-width:1;stroke-linecap:round;stroke-linejoin:round;stroke-miterlimit:10;stroke-dasharray:none;stroke-opacity:1"
             id="path308"
             inkscape:connector-curvature="0" /></g><g
           id="g310"
           transform="translate(573.7905,517.25)"><path
             d="m 0,0 -56.291,0 c -0.552,0 -1,-0.447 -1,-1 0,-0.553 0.448,-1 1,-1 l 55.032,0 c 0.435,0.668 0.854,1.335 1.259,2"
             style="fill:#e6e6e6;fill-opacity:1;fill-rule:nonzero;stroke:none"
             id="path312"
             inkscape:connector-curvature="0" /></g><g
           id="g314"
           transform="translate(662.75,517.25)"><path
             d="m 0,0 -53.736,0 c 0.632,-1.169 1.043,-1.855 1.131,-2 L 0,-2 c 0.553,0 1,0.447 1,1 0,0.553 -0.447,1 -1,1"
             style="fill:#e6e6e6;fill-opacity:1;fill-rule:nonzero;stroke:none"
             id="path316"
             inkscape:connector-curvature="0" /></g></g></g></g><g
     id="g7" /><g
     id="g9" /><g
     id="g11" /><g
     id="g13" /><g
     id="g15" /><g
     id="g17" /><g
     id="g19" /><g
     id="g21" /><g
     id="g23" /><g
     id="g25" /><g
     id="g27" /><g
     id="g29" /><g
     id="g31" /><g
     id="g33" /><g
     id="g35" /></svg>