<?xml version="1.0" encoding="UTF-8" standalone="no"?>
<!-- Generator: Adobe Illustrator 19.0.0, SVG Export Plug-In . SVG Version: 6.00 Build 0)  -->

<svg
   xmlns:dc="http://purl.org/dc/elements/1.1/"
   xmlns:cc="http://creativecommons.org/ns#"
   xmlns:rdf="http://www.w3.org/1999/02/22-rdf-syntax-ns#"
   xmlns:svg="http://www.w3.org/2000/svg"
   xmlns="http://www.w3.org/2000/svg"
   xmlns:sodipodi="http://sodipodi.sourceforge.net/DTD/sodipodi-0.dtd"
   xmlns:inkscape="http://www.inkscape.org/namespaces/inkscape"
   version="1.1"
   id="Capa_1"
   x="0px"
   y="0px"
   viewBox="0 0 463 463"
   style="enable-background:new 0 0 463 463;"
   xml:space="preserve"
   inkscape:version="0.91 r13725"
   sodipodi:docname="farol.svg"><metadata
     id="metadata39"><rdf:RDF><cc:Work
         rdf:about=""><dc:format>image/svg+xml</dc:format><dc:type
           rdf:resource="http://purl.org/dc/dcmitype/StillImage" /><dc:title></dc:title></cc:Work></rdf:RDF></metadata><defs
     id="defs37"><clipPath
       clipPathUnits="userSpaceOnUse"
       id="clipPath86"><path
         d="m 0,1080 1920,0 L 1920,0 0,0 0,1080 Z"
         id="path88"
         inkscape:connector-curvature="0" /></clipPath></defs><sodipodi:namedview
     pagecolor="#ffffff"
     bordercolor="#666666"
     borderopacity="1"
     objecttolerance="10"
     gridtolerance="10"
     guidetolerance="10"
     inkscape:pageopacity="0"
     inkscape:pageshadow="2"
     inkscape:window-width="1366"
     inkscape:window-height="655"
     id="namedview35"
     showgrid="false"
     inkscape:zoom="1.0475162"
     inkscape:cx="164.67902"
     inkscape:cy="231.5"
     inkscape:window-x="0"
     inkscape:window-y="25"
     inkscape:window-maximized="1"
     inkscape:current-layer="Capa_1" /><g
     id="g5"
     style="fill:#e6e6e6" /><g
     id="g7"
     style="fill:#e6e6e6" /><g
     id="g9"
     style="fill:#e6e6e6" /><g
     id="g11"
     style="fill:#e6e6e6" /><g
     id="g13"
     style="fill:#e6e6e6" /><g
     id="g15"
     style="fill:#e6e6e6" /><g
     id="g17"
     style="fill:#e6e6e6" /><g
     id="g19"
     style="fill:#e6e6e6" /><g
     id="g21"
     style="fill:#e6e6e6" /><g
     id="g23"
     style="fill:#e6e6e6" /><g
     id="g25"
     style="fill:#e6e6e6" /><g
     id="g27"
     style="fill:#e6e6e6" /><g
     id="g29"
     style="fill:#e6e6e6" /><g
     id="g31"
     style="fill:#e6e6e6" /><g
     id="g33"
     style="fill:#e6e6e6" /><g
     transform="matrix(2.8989465,0,0,-2.8989465,-1474.6982,2726.2597)"
     id="g82"><g
       id="g84"
       clip-path="url(#clipPath86)"><g
         id="g90"
         transform="translate(600.1094,820.1997)"><path
           d="m 0,0 c -6.516,-0.203 -12.696,-1.109 -18.504,-3.877 l 18.718,0 C 0.142,-2.578 0.078,-1.421 0,0 m -2.818,75.951 c -3.082,0 -5.782,0.554 -8.115,-0.134 -3.2,-0.944 -6.128,-2.818 -9.154,-4.329 -0.282,-0.141 -0.615,-0.536 -0.619,-0.817 -0.042,-3.423 -0.027,-6.846 -0.027,-10.35 5.239,3.3 11.133,5.265 17.219,6.749 0.296,0.072 0.658,0.651 0.665,1.001 0.057,2.589 0.031,5.179 0.031,7.88 m 0.641,-22.656 c -6.916,-0.739 -13.043,-2.845 -18.557,-6.626 -0.429,-0.294 -0.768,-1.005 -0.799,-1.543 -0.145,-2.48 -0.173,-4.968 -0.228,-7.454 -0.021,-0.961 -0.003,-1.923 -0.003,-3.072 6.209,4.109 13.092,5.19 20.135,6.015 -0.185,4.27 -0.362,8.374 -0.548,12.68 M -22.361,8.392 c 6.511,4.368 14.09,5.37 21.808,6.122 -0.175,4.001 -0.339,7.778 -0.512,11.765 -2.571,-0.32 -4.935,-0.535 -7.272,-0.922 -4.565,-0.758 -8.984,-1.997 -12.921,-4.543 -0.47,-0.304 -1.043,-0.909 -1.054,-1.388 -0.088,-3.639 -0.049,-7.282 -0.049,-11.034 m 0.297,69.151 20.423,0 C -0.494,49.915 0.652,22.314 1.804,-5.418 l -26.508,0 c 0.879,27.622 1.756,55.221 2.64,82.961"
           style="fill:#e6e6e6;fill-opacity:1;fill-rule:evenodd;stroke:none"
           id="path92"
           inkscape:connector-curvature="0" /></g><g
         id="g94"
         transform="translate(581.4004,789.478)"><path
           d="m 0,0 -9.614,0 c 0.514,8.079 1.024,16.082 1.542,24.218 l 30.682,0 C 23.123,16.167 23.633,8.163 24.15,0.041 l -9.725,0 c 0,0.963 0.009,1.845 -0.001,2.727 -0.035,3.179 0.088,6.371 -0.157,9.533 C 13.965,16.2 10.748,18.785 6.849,18.58 3.14,18.384 0.279,15.369 0.24,11.56 0.202,7.85 0.209,4.139 0.189,0.429 0.189,0.335 0.11,0.242 0,0"
           style="fill:#e6e6e6;fill-opacity:1;fill-rule:evenodd;stroke:none"
           id="path96"
           inkscape:connector-curvature="0" /></g><path
         d="m 635.831,780.718 -94.546,0 0,6.18 94.546,0 0,-6.18 z"
         style="fill:#e6e6e6;fill-opacity:1;fill-rule:evenodd;stroke:none"
         id="path98"
         inkscape:connector-curvature="0" /><path
         d="m 575.575,906.498 25.02,0 0,-4.633 -25.02,0 0,4.633 z"
         style="fill:#e6e6e6;fill-opacity:1;fill-rule:evenodd;stroke:none"
         id="path100"
         inkscape:connector-curvature="0" /><path
         d="m 598.892,923.187 -21.38,0 0,4.546 21.38,0 0,-4.546 z"
         style="fill:#e6e6e6;fill-opacity:1;fill-rule:evenodd;stroke:none"
         id="path102"
         inkscape:connector-curvature="0" /><g
         id="g104"
         transform="translate(595.2642,931.9438)"><path
           d="m 0,0 -13.884,0 c -0.496,2.844 0.252,5.194 2.505,6.925 2.415,1.855 5.081,2.061 7.748,0.603 C -0.741,5.947 0.203,3.322 0,0"
           style="fill:#e6e6e6;fill-opacity:1;fill-rule:evenodd;stroke:none"
           id="path106"
           inkscape:connector-curvature="0" /></g><path
         d="m 584.597,921.614 6.841,0 0,-13.716 -6.841,0 0,13.716 z"
         style="fill:#e6e6e6;fill-opacity:1;fill-rule:evenodd;stroke:none"
         id="path108"
         inkscape:connector-curvature="0" /><g
         id="g110"
         transform="translate(600.6396,900.8154)"><path
           d="m 0,0 c -1.196,-1.46 -2.278,-2.36 -4.195,-2.31 -5.447,0.143 -10.901,0.128 -16.348,0.009 -1.864,-0.041 -2.829,0.97 -4.015,2.301 L 0,0 Z"
           style="fill:#e6e6e6;fill-opacity:1;fill-rule:evenodd;stroke:none"
           id="path112"
           inkscape:connector-curvature="0" /></g><g
         id="g114"
         transform="translate(598.457,928.7764)"><path
           d="m 0,0 -20.441,0 c 1.197,1.418 2.268,2.37 4.18,2.3 4.072,-0.149 8.155,-0.148 12.227,0 C -2.165,2.367 -1.173,1.396 0,0"
           style="fill:#e6e6e6;fill-opacity:1;fill-rule:evenodd;stroke:none"
           id="path116"
           inkscape:connector-curvature="0" /></g><g
         id="g118"
         transform="translate(583.1431,907.9854)"><path
           d="m 0,0 -7.165,0 c 1.577,1.009 2.749,1.884 4.033,2.545 1.119,0.577 1.295,1.376 1.381,2.54 0.253,3.436 0.077,6.596 -3.865,8.251 0.124,0.105 0.247,0.21 0.37,0.316 L 0,13.652 0,0 Z"
           style="fill:#e6e6e6;fill-opacity:1;fill-rule:evenodd;stroke:none"
           id="path120"
           inkscape:connector-curvature="0" /></g><g
         id="g122"
         transform="translate(593.1279,921.7012)"><path
           d="M 0,0 5.708,0 C 4.397,-1.152 3.323,-2.056 2.301,-3.016 1.935,-3.359 1.455,-3.829 1.439,-4.255 1.373,-6.052 1.417,-7.857 1.531,-9.652 c 0.024,-0.367 0.462,-0.788 0.813,-1.037 1.337,-0.95 2.716,-1.839 4.387,-2.957 L 0,-13.646 0,0 Z"
           style="fill:#e6e6e6;fill-opacity:1;fill-rule:evenodd;stroke:none"
           id="path124"
           inkscape:connector-curvature="0" /></g></g></g></svg>