<?xml version="1.0" encoding="UTF-8" standalone="no"?>
<!-- Generator: Adobe Illustrator 16.0.0, SVG Export Plug-In . SVG Version: 6.00 Build 0)  -->

<svg
   xmlns:dc="http://purl.org/dc/elements/1.1/"
   xmlns:cc="http://creativecommons.org/ns#"
   xmlns:rdf="http://www.w3.org/1999/02/22-rdf-syntax-ns#"
   xmlns:svg="http://www.w3.org/2000/svg"
   xmlns="http://www.w3.org/2000/svg"
   xmlns:sodipodi="http://sodipodi.sourceforge.net/DTD/sodipodi-0.dtd"
   xmlns:inkscape="http://www.inkscape.org/namespaces/inkscape"
   version="1.1"
   id="Capa_1"
   x="0px"
   y="0px"
   width="600"
   height="600"
   viewBox="0 0 600 600"
   xml:space="preserve"
   inkscape:version="0.91 r13725"
   sodipodi:docname="frontal-truck.svg"><metadata
     id="metadata41"><rdf:RDF><cc:Work
         rdf:about=""><dc:format>image/svg+xml</dc:format><dc:type
           rdf:resource="http://purl.org/dc/dcmitype/StillImage" /><dc:title /></cc:Work></rdf:RDF></metadata><defs
     id="defs39" /><sodipodi:namedview
     pagecolor="#ffffff"
     bordercolor="#666666"
     borderopacity="1"
     objecttolerance="10"
     gridtolerance="10"
     guidetolerance="10"
     inkscape:pageopacity="0"
     inkscape:pageshadow="2"
     inkscape:window-width="1366"
     inkscape:window-height="743"
     id="namedview37"
     showgrid="false"
     inkscape:zoom="0.54535033"
     inkscape:cx="218.42348"
     inkscape:cy="247.92627"
     inkscape:window-x="0"
     inkscape:window-y="25"
     inkscape:window-maximized="1"
     inkscape:current-layer="g3" /><g
     id="g3"
     transform="translate(0,-12)"><path
       style="fill:none;stroke:#e6e6e6;stroke-width:10;stroke-miterlimit:4;stroke-dasharray:none"
       d="m 523.1556,496.12977 0,-89.49325 c 0,-19.22874 -15.5882,-34.81789 -34.81694,-34.81789 l -9.10181,0 0,-326.721662 c 0,-2.92267 -1.46703,-5.649989 -3.90417,-7.261156 l -22.1002,-14.60766 c -5.7875,-3.824505 -13.50288,0.32432 -13.50288,7.261156 l 0,104.931612 -6.58597,-17.7655 C 424.28648,93.761981 401.49592,77.904457 376.01311,77.904457 l -152.16089,0 c -25.63263,0 -48.52371,16.041494 -57.27181,40.135033 l -6.31096,17.38143 0,-104.931612 c 0,-6.935888 -7.71634,-11.085661 -13.50382,-7.261156 l -22.10115,14.606712 c -2.4381,1.611167 -3.90512,4.338486 -3.90512,7.261156 l 0,326.72261 -9.10086,0 c -19.228736,0 -34.81694,15.58821 -34.81694,34.81789 l 0,89.49325 -14.833355,0 c -4.806947,0 -8.703524,3.89657 -8.703524,8.70448 l 0,48.11973 c 0,4.80695 3.896577,8.70448 8.703524,8.70448 l 37.550896,0 0,23.06462 c 0,9.61485 7.794099,17.408 17.408949,17.408 l 46.13019,0 c 9.61485,0 17.40894,-7.7941 17.40894,-17.408 l 0,-23.06462 238.98563,0 0,23.06462 c 0,9.61485 7.79505,17.408 17.40799,17.408 l 46.13116,0 c 9.61484,0 17.408,-7.7941 17.408,-17.408 l 0,-23.06462 37.55089,0 c 4.8079,0 8.70447,-3.89753 8.70447,-8.70448 l 0,-48.11879 c 0,-4.8079 -3.89657,-8.70447 -8.70447,-8.70447 l -14.83525,-9.5e-4 0,0 z"
       id="path4183" /><path
       style="fill:none;stroke:#e6e6e6;stroke-width:10;stroke-miterlimit:4;stroke-dasharray:none"
       d="m 171.80177,183.90671 256.39457,0 0,85.76453 -256.39457,0 0,-85.76453 z"
       id="path4181" /><path
       style="fill:#e6e6e6;stroke:none;stroke-width:10;stroke-miterlimit:4;stroke-dasharray:none"
       d="m 165.83979,471.77167 -29.73594,0 c -9.08569,0 -16.45116,-7.36643 -16.45116,-16.45211 l 0,-0.41537 c 0,-9.08569 7.36547,-16.45116 16.45116,-16.45116 l 29.735,0 c 9.08569,0 16.45114,7.36547 16.45114,16.45116 l 0,0.41537 c 9.6e-4,9.08568 -7.36451,16.45211 -16.4502,16.45211 z"
       id="path4179" /><path
       style="fill:none;stroke:#e6e6e6;stroke-width:10;stroke-miterlimit:4;stroke-dasharray:none"
       d="m 359.17126,476.62223 -118.34442,0 c -9.61484,0 -17.40895,-7.79505 -17.40895,-17.408 l 0,-110.30186 c 0,-9.61389 7.79411,-17.40799 17.40895,-17.40799 l 118.34442,0 c 9.6139,0 17.408,7.79505 17.408,17.40799 l 0,110.30091 c 9.4e-4,9.6139 -7.7941,17.40895 -17.408,17.40895 z"
       id="path4177" /><path
       style="fill:#e6e6e6;stroke:none;stroke-width:10;stroke-miterlimit:4;stroke-dasharray:none"
       d="m 463.89331,471.77167 -29.735,0 c -9.08473,0 -16.45115,-7.36643 -16.45115,-16.45211 l 0,-0.41537 c 0,-9.08569 7.36642,-16.45116 16.45115,-16.45116 l 29.735,0 c 9.08569,0 16.4521,7.36547 16.4521,16.45116 l 0,0.41537 c 0,9.08568 -7.36641,16.45211 -16.4521,16.45211 z"
       id="path4175" /><path
       style="fill:#e6e6e6;stroke:none;stroke-width:10;stroke-miterlimit:4;stroke-dasharray:none"
       d="m 356.52454,395.21327 -113.32978,0 c -4.75953,0 -8.61723,-3.8577 -8.61723,-8.61818 l 0,-0.17449 c 0,-4.75953 3.8577,-8.61628 8.61723,-8.61628 l 113.32978,0 c 4.75954,0 8.61723,3.85675 8.61723,8.61628 l 0,0.17449 c 0,4.76048 -3.85769,8.61818 -8.61723,8.61818 z"
       id="path4173" /><path
       style="fill:#e6e6e6;stroke:none;stroke-width:10;stroke-miterlimit:4;stroke-dasharray:none"
       d="m 356.52454,360.39538 -113.32978,0 c -4.75953,0 -8.61723,-3.8577 -8.61723,-8.61723 l 0,-0.17449 c 0,-4.75859 3.8577,-8.61628 8.61723,-8.61628 l 113.32978,0 c 4.75954,0 8.61723,3.85769 8.61723,8.61628 l 0,0.17449 c 0,4.75953 -3.85769,8.61723 -8.61723,8.61723 z"
       id="path4171" /><path
       style="fill:#e6e6e6;stroke:none;stroke-width:10;stroke-miterlimit:4;stroke-dasharray:none"
       d="m 356.52454,464.8481 -113.32978,0 c -4.75953,0 -8.61723,-3.85769 -8.61723,-8.61723 l 0,-0.17449 c 0,-4.75953 3.8577,-8.61723 8.61723,-8.61723 l 113.32978,0 c 4.75954,0 8.61723,3.8577 8.61723,8.61723 l 0,0.17449 c 0,4.75954 -3.85769,8.61723 -8.61723,8.61723 z"
       id="path4169" /><path
       style="fill:#e6e6e6;stroke:none;stroke-width:10;stroke-miterlimit:4;stroke-dasharray:none"
       d="m 356.52454,430.0302 -113.32978,0 c -4.75953,0 -8.61723,-3.85769 -8.61723,-8.61627 l 0,-0.17448 c 0,-4.75954 3.8577,-8.61723 8.61723,-8.61723 l 113.32978,0 c 4.75954,0 8.61723,3.85769 8.61723,8.61723 l 0,0.17448 c 0,4.75858 -3.85769,8.61627 -8.61723,8.61627 z"
       id="path5" /></g><g
     id="g7"
     transform="translate(0,-12)" /><g
     id="g9"
     transform="translate(0,-12)" /><g
     id="g11"
     transform="translate(0,-12)" /><g
     id="g13"
     transform="translate(0,-12)" /><g
     id="g15"
     transform="translate(0,-12)" /><g
     id="g17"
     transform="translate(0,-12)" /><g
     id="g19"
     transform="translate(0,-12)" /><g
     id="g21"
     transform="translate(0,-12)" /><g
     id="g23"
     transform="translate(0,-12)" /><g
     id="g25"
     transform="translate(0,-12)" /><g
     id="g27"
     transform="translate(0,-12)" /><g
     id="g29"
     transform="translate(0,-12)" /><g
     id="g31"
     transform="translate(0,-12)" /><g
     id="g33"
     transform="translate(0,-12)" /><g
     id="g35"
     transform="translate(0,-12)" /></svg>