<?xml version="1.0" encoding="UTF-8" standalone="no"?>
<!-- Created with Inkscape (http://www.inkscape.org/) -->

<svg
   xmlns:dc="http://purl.org/dc/elements/1.1/"
   xmlns:cc="http://creativecommons.org/ns#"
   xmlns:rdf="http://www.w3.org/1999/02/22-rdf-syntax-ns#"
   xmlns:svg="http://www.w3.org/2000/svg"
   xmlns="http://www.w3.org/2000/svg"
   xmlns:sodipodi="http://sodipodi.sourceforge.net/DTD/sodipodi-0.dtd"
   xmlns:inkscape="http://www.inkscape.org/namespaces/inkscape"
   width="420"
   height="420"
   viewBox="0 0 420 420.00001"
   id="svg3358"
   version="1.1"
   inkscape:version="0.91 r13725"
   sodipodi:docname="internato.svg">
  <defs
     id="defs3360" />
  <sodipodi:namedview
     id="base"
     pagecolor="#ffffff"
     bordercolor="#666666"
     borderopacity="1.0"
     inkscape:pageopacity="0.0"
     inkscape:pageshadow="2"
     inkscape:zoom="0.25"
     inkscape:cx="-66.204476"
     inkscape:cy="11.712322"
     inkscape:document-units="px"
     inkscape:current-layer="layer1"
     showgrid="false"
     units="px"
     inkscape:window-width="1366"
     inkscape:window-height="743"
     inkscape:window-x="0"
     inkscape:window-y="25"
     inkscape:window-maximized="1" />
  <metadata
     id="metadata3363">
    <rdf:RDF>
      <cc:Work
         rdf:about="">
        <dc:format>image/svg+xml</dc:format>
        <dc:type
           rdf:resource="http://purl.org/dc/dcmitype/StillImage" />
        <dc:title></dc:title>
      </cc:Work>
    </rdf:RDF>
  </metadata>
  <g
     inkscape:label="Camada 1"
     inkscape:groupmode="layer"
     id="layer1"
     transform="translate(0,-632.36216)">
    <g
       style="fill:#e6e6e6"
       id="g38"
       transform="matrix(0.90712137,0,0,0.90712137,-3.4631016e-4,632.36175)">
      <path
         style="fill:#e6e6e6"
         id="path40"
         d="m 455.502,416.002 -8.5,0 0,-139.983 5.546,2.377 c 0.963,0.413 1.965,0.608 2.95,0.608 2.91,0 5.679,-1.704 6.897,-4.547 1.632,-3.808 -0.132,-8.216 -3.939,-9.848 L 335.002,211.7 l 0,-24.417 4.779,2.731 c 1.174,0.671 2.452,0.99 3.714,0.99 2.604,0 5.135,-1.358 6.519,-3.78 2.056,-3.597 0.806,-8.178 -2.791,-10.233 l -108.221,-61.84 0,-20.149 72.5,0 c 2.766,0 5.308,-1.522 6.612,-3.961 1.306,-2.439 1.162,-5.398 -0.372,-7.699 l -13.227,-19.84 13.227,-19.84 c 1.534,-2.301 1.678,-5.26 0.372,-7.699 -1.305,-2.438 -3.847,-3.961 -6.612,-3.961 l -72.5,0 0,-8.5 c 0,-4.142 -3.357,-7.5 -7.5,-7.5 -4.143,0 -7.5,3.358 -7.5,7.5 l 0,91.648 -108.221,61.84 c -3.597,2.055 -4.847,6.636 -2.791,10.233 2.056,3.596 6.636,4.845 10.232,2.791 l 4.779,-2.731 0,24.417 -123.453,52.909 c -3.808,1.632 -5.571,6.041 -3.939,9.848 1.219,2.844 3.987,4.547 6.897,4.547 0.985,0 1.987,-0.196 2.95,-0.608 l 5.546,-2.377 0,139.983 -8.5,0 c -4.143,0 -7.5,3.358 -7.5,7.5 0,4.142 3.357,7.5 7.5,7.5 l 120.5,0 0,8.5 c 0,4.142 3.357,7.5 7.5,7.5 l 192,0 c 4.143,0 7.5,-3.358 7.5,-7.5 l 0,-8.5 120.5,0 c 4.143,0 7.5,-3.358 7.5,-7.5 0,-4.142 -3.357,-7.5 -7.5,-7.5 z m -23.5,-146.412 0,114.412 -25,0 0,-78.5 c 0,-5.238 -4.262,-9.5 -9.5,-9.5 l -28,0 c -5.238,0 -9.5,4.262 -9.5,9.5 l 0,78.5 -25,0 0,-155.983 97,41.571 z m -40,58.412 -17,0 0,-17 17,0 0,17 z m -17,15 17,0 0,41 -17,0 0,-41 z m -77.514,-296 -8.227,12.34 c -1.68,2.519 -1.68,5.801 0,8.32 l 8.227,12.34 -58.486,0 0,-33 58.486,0 z m -65.986,81.138 88.586,50.62 c -0.051,0.352 -0.086,0.709 -0.086,1.075 l 0,36.736 c 0,0.026 0,0.052 0,0.078 l 0,183.353 -33,0 0,-64.5 c 0,-4.142 -3.357,-7.5 -7.5,-7.5 l -96,0 c -4.143,0 -7.5,3.358 -7.5,7.5 l 0,64.5 -33,0 0,-183.353 c 0,-0.026 0,-0.052 0,-0.078 l 0,-36.736 c 0,-0.366 -0.035,-0.723 -0.086,-1.075 l 88.586,-50.62 z m -40.5,214.862 33,0 0,89 -33,0 0,-89 z m 48,0 33,0 0,89 -33,0 0,-89 z m -111,-114.983 0,155.983 -25,0 0,-78.5 c 0,-5.238 -4.262,-9.5 -9.5,-9.5 l -28,0 c -5.238,0 -9.5,4.262 -9.5,9.5 l 0,78.5 -25,0 0,-114.412 97,-41.571 z m -40,99.983 -17,0 0,-17 17,0 0,17 z m -17,15 17,0 0,41 -17,0 0,-41 z m -40,73 0,-17 32.5,0 32,0 32.5,0 0,17 -97,0 z m 112,-1 33,0 0,17 -33,0 0,-17 z m 177,17 -33,0 0,-17 33,0 0,17 z m 15,-33 32.5,0 32,0 32.5,0 0,17 -97,0 0,-17 z"
         inkscape:connector-curvature="0" />
      <path
         style="fill:#e6e6e6"
         id="path42"
         d="m 183.502,311.002 32,0 c 4.143,0 7.5,-3.358 7.5,-7.5 l 0,-86 c 0,-5.238 -4.262,-9.5 -9.5,-9.5 l -28,0 c -5.238,0 -9.5,4.262 -9.5,9.5 l 0,86 c 0,4.142 3.357,7.5 7.5,7.5 z m 7.5,-15 0,-41 17,0 0,41 -17,0 z m 17,-73 0,17 -17,0 0,-17 17,0 z"
         inkscape:connector-curvature="0" />
      <path
         style="fill:#e6e6e6"
         id="path44"
         d="m 247.502,311.002 32,0 c 4.143,0 7.5,-3.358 7.5,-7.5 l 0,-86 c 0,-5.238 -4.262,-9.5 -9.5,-9.5 l -28,0 c -5.238,0 -9.5,4.262 -9.5,9.5 l 0,86 c 0,4.142 3.357,7.5 7.5,7.5 z m 7.5,-15 0,-41 17,0 0,41 -17,0 z m 17,-73 0,17 -17,0 0,-17 17,0 z"
         inkscape:connector-curvature="0" />
    </g>
  </g>
</svg>
