<?xml version="1.0" encoding="UTF-8" standalone="no"?>
<!-- Created with Inkscape (http://www.inkscape.org/) -->

<svg
   xmlns:dc="http://purl.org/dc/elements/1.1/"
   xmlns:cc="http://creativecommons.org/ns#"
   xmlns:rdf="http://www.w3.org/1999/02/22-rdf-syntax-ns#"
   xmlns:svg="http://www.w3.org/2000/svg"
   xmlns="http://www.w3.org/2000/svg"
   xmlns:sodipodi="http://sodipodi.sourceforge.net/DTD/sodipodi-0.dtd"
   xmlns:inkscape="http://www.inkscape.org/namespaces/inkscape"
   width="420"
   height="420"
   viewBox="0 0 420 420.00001"
   id="svg6041"
   version="1.1"
   inkscape:version="0.91 r13725"
   sodipodi:docname="logo.svg">
  <defs
     id="defs6043" />
  <sodipodi:namedview
     id="base"
     pagecolor="#ffffff"
     bordercolor="#666666"
     borderopacity="1.0"
     inkscape:pageopacity="0.0"
     inkscape:pageshadow="2"
     inkscape:zoom="1"
     inkscape:cx="190.27279"
     inkscape:cy="163.12749"
     inkscape:document-units="px"
     inkscape:current-layer="g6097"
     showgrid="false"
     units="px"
     inkscape:window-width="1366"
     inkscape:window-height="719"
     inkscape:window-x="0"
     inkscape:window-y="25"
     inkscape:window-maximized="1" />
  <metadata
     id="metadata6046">
    <rdf:RDF>
      <cc:Work
         rdf:about="">
        <dc:format>image/svg+xml</dc:format>
        <dc:type
           rdf:resource="http://purl.org/dc/dcmitype/StillImage" />
        <dc:title />
      </cc:Work>
    </rdf:RDF>
  </metadata>
  <g
     inkscape:label="Camada 1"
     inkscape:groupmode="layer"
     id="layer1"
     transform="translate(0,-632.36216)">
    <g
       id="g6097"
       transform="matrix(6.0565218,0,0,6.0565218,-2061.1957,-2381.9009)">
      <polygon
         class="st19"
         points="162.9,197.6 189.1,177.6 215.4,197.6 "
         id="polygon216"
         style="fill:#ab010b"
         transform="matrix(0.83752093,0,0,0.83752093,216.58292,348.94508)" />
      <circle
         class="st20"
         cx="359.12897"
         cy="521.72565"
         r="4.522613"
         id="circle218"
         style="fill:#333333" />
      <circle
         class="st20"
         cx="380.40201"
         cy="521.72565"
         r="4.522613"
         id="circle220"
         style="fill:#333333" />
      <circle
         class="st20"
         cx="369.7655"
         cy="521.72565"
         r="4.522613"
         id="circle222"
         style="fill:#333333" />
      <circle
         class="st20"
         cx="390.78726"
         cy="521.72565"
         r="4.522613"
         id="circle224"
         style="fill:#333333" />
      <g
         style="font-size:27.57018471px;font-family:HelveticaLTStd-Roman;fill:#333333"
         id="text226">
        <path
           d="m 356.94088,527.5883 2.71932,0 0,8.23875 9.88111,0 0,-8.23875 2.71933,0 0,20.09877 -2.71933,0 0,-9.57148 -9.88111,0 0,9.57148 -2.71932,0 0,-20.09877 z"
           style="font-size:27.57018471px;font-family:HelveticaLTStd-Roman;fill:#333333"
           id="path3657" />
      </g>
      <g
         style="font-size:27.57018471px;font-family:HelveticaLTStd-Roman;fill:#333333"
         id="text228">
        <path
           d="m 378.53158,527.5883 2.71932,0 0,8.23875 9.88111,0 0,-8.23875 2.71933,0 0,20.09877 -2.71933,0 0,-9.57148 -9.88111,0 0,9.57148 -2.71932,0 0,-20.09877 z"
           style="font-size:27.57018471px;font-family:HelveticaLTStd-Roman;fill:#333333"
           id="path3654" />
      </g>
      <path
         class="st20"
         d="m 359.88275,557.15279 -0.58627,0 0,-2.09381 -2.2613,0 0,2.09381 -0.58627,0 0,-4.52262 0.58627,0 0,1.9263 2.2613,0 0,-1.9263 0.58627,0 0,4.52262 z"
         id="path234"
         inkscape:connector-curvature="0"
         style="fill:#333333" />
      <path
         class="st20"
         d="m 365.49414,555.98026 -1.9263,0 -0.41876,1.17253 -0.58627,0 1.7588,-4.52262 0.50251,0 1.7588,4.52262 -0.58627,0 -0.50251,-1.17253 z m -1.67504,-0.50252 1.50753,0 -0.75376,-2.0938 -0.75377,2.0938 z"
         id="path236"
         inkscape:connector-curvature="0"
         style="fill:#333333" />
      <path
         class="st20"
         d="m 369.17923,557.15279 0,-4.52262 1.50754,0 c 0.50251,0 0.83752,0.0838 1.08878,0.33501 0.25125,0.25126 0.335,0.50251 0.335,0.92127 0,0.25126 -0.0838,0.41877 -0.1675,0.58627 -0.0838,0.1675 -0.25126,0.25126 -0.50251,0.41876 0.25125,0.0838 0.41876,0.1675 0.58626,0.41876 0.16751,0.1675 0.25126,0.41876 0.25126,0.67002 0,0.41876 -0.16751,0.75377 -0.41876,0.92127 -0.25126,0.25126 -0.67002,0.33501 -1.08878,0.33501 l -1.59129,0 z m 0.67002,-2.59632 0.92127,0 c 0.25126,0 0.50251,-0.0838 0.58626,-0.1675 0.16751,-0.16751 0.25126,-0.33501 0.25126,-0.50252 0,-0.25125 -0.0838,-0.41876 -0.25126,-0.58626 -0.1675,-0.0838 -0.335,-0.1675 -0.67001,-0.1675 l -0.83752,0 z m 0,0.61483 0,1.59129 1.00502,0 c 0.25126,0 0.50251,-0.0838 0.67002,-0.25125 0.1675,-0.16751 0.25126,-0.33501 0.25126,-0.58627 0,-0.58626 -0.33504,-0.8315 -0.92128,-0.83752 l -1.00502,0 z"
         id="path238"
         inkscape:connector-curvature="0"
         style="fill:#333333"
         sodipodi:nodetypes="ccscscccscscccscscsccccscsscc" />
      <path
         class="st20"
         d="m 375.8794,557.15279 -0.58627,0 0,-4.52262 0.58627,0 0,4.52262 z"
         id="path240"
         inkscape:connector-curvature="0"
         style="fill:#333333" />
      <path
         class="st20"
         d="m 382.07705,553.04893 -1.42378,0 0,4.0201 -0.58627,0 0,-4.0201 -1.42378,0 0,-0.50251 3.51758,0 0,0.50251 z"
         id="path242"
         inkscape:connector-curvature="0"
         style="fill:#333333" />
      <path
         class="st20"
         d="m 387.01843,555.98026 -1.9263,0 -0.41876,1.17253 -0.58627,0 1.7588,-4.52262 0.50251,0 1.75879,4.52262 -0.67001,0 -0.41876,-1.17253 z m -1.67505,-0.50252 1.50754,0 -0.75377,-2.0938 -0.75377,2.0938 z"
         id="path244"
         inkscape:connector-curvature="0"
         style="fill:#333333" />
      <path
         class="st20"
         d="m 392.37856,555.31024 -1.08878,0 0,1.84255 -0.58626,0 0,-4.52262 1.50754,0 c 0.50251,0 0.92127,0.0838 1.17253,0.33501 0.25125,0.25126 0.41876,0.58627 0.41876,1.00503 0,0.25125 -0.0838,0.50251 -0.25126,0.75377 -0.1675,0.25125 -0.33501,0.335 -0.67002,0.50251 l 1.08878,1.9263 0,0 -0.67002,0 -0.92127,-1.84255 z m -1.08878,-0.50251 0.92128,0 c 0.335,0 0.50251,-0.0838 0.67001,-0.25126 0.16751,-0.1675 0.25126,-0.33501 0.25126,-0.58626 0,-0.25126 -0.0838,-0.50252 -0.25126,-0.67002 -0.1675,-0.1675 -0.41876,-0.25126 -0.75377,-0.25126 l -0.92127,0 0,1.7588 z"
         id="path246"
         inkscape:connector-curvature="0"
         style="fill:#333333" />
      <path
         class="st15"
         d="m 359.88275,566.95178 -0.58627,0 0,-2.0938 -2.2613,0 0,2.0938 -0.58627,0 0,-4.52261 0.58627,0 0,1.9263 2.2613,0 0,-1.9263 0.58627,0 0,4.52261 z"
         id="path248"
         inkscape:connector-curvature="0"
         style="fill:#1a1a1a" />
      <path
         class="st15"
         d="m 365.49414,565.6955 -1.9263,0 -0.41876,1.17253 -0.58627,0 1.7588,-4.52261 0.50251,0 1.7588,4.52261 -0.58627,0 -0.50251,-1.17253 z m -1.67504,-0.41876 1.50753,0 -0.75376,-2.0938 -0.75377,2.0938 z"
         id="path250"
         inkscape:connector-curvature="0"
         style="fill:#1a1a1a" />
      <path
         class="st15"
         d="m 369.17923,566.95178 0,-4.52261 1.50754,0 c 0.50251,0 0.83752,0.0838 1.08878,0.33501 0.25125,0.25125 0.335,0.50251 0.335,0.92127 0,0.25126 -0.0838,0.41876 -0.1675,0.58626 -0.0838,0.16751 -0.25126,0.25126 -0.50251,0.41876 0.25125,0.0838 0.41876,0.16751 0.58626,0.41877 0.16751,0.1675 0.25126,0.41876 0.25126,0.67001 0,0.41876 -0.16751,0.75377 -0.41876,0.92128 -0.25126,0.25125 -0.67002,0.335 -1.08878,0.335 l -1.59129,0 z m 0.67002,-2.59631 0.92127,0 c 0.25126,0 0.50251,-0.0838 0.58626,-0.16751 0.16751,-0.1675 0.25126,-0.33501 0.25126,-0.50251 0,-0.25126 -0.0838,-0.41876 -0.25126,-0.58626 -0.1675,-0.0838 -0.335,-0.16751 -0.67001,-0.16751 l -0.83752,0 z m 0,0.63547 0,1.59129 1.00502,0 c 0.25126,0 0.50251,-0.0837 0.67002,-0.25126 0.1675,-0.1675 0.25126,-0.33501 0.25126,-0.58626 0,-0.58627 -0.33501,-0.83753 -0.92128,-0.83753 l -1.00502,0 z"
         id="path252"
         inkscape:connector-curvature="0"
         style="fill:#1a1a1a"
         sodipodi:nodetypes="ccscscccscscccscscsccccscsscc" />
      <path
         class="st15"
         d="m 375.8794,566.95178 -0.58627,0 0,-4.52261 0.58627,0 0,4.52261 z"
         id="path254"
         inkscape:connector-curvature="0"
         style="fill:#1a1a1a" />
      <path
         class="st15"
         d="m 382.07705,562.84793 -1.42378,0 0,4.0201 -0.58627,0 0,-4.0201 -1.42378,0 0,-0.50251 3.51758,0 0,0.50251 z"
         id="path256"
         inkscape:connector-curvature="0"
         style="fill:#1a1a1a" />
      <path
         class="st15"
         d="m 387.01843,565.6955 -1.9263,0 -0.41876,1.17253 -0.58627,0 1.7588,-4.52261 0.50251,0 1.75879,4.52261 -0.67001,0 -0.41876,-1.17253 z m -1.67505,-0.41876 1.50754,0 -0.75377,-2.0938 -0.75377,2.0938 z"
         id="path258"
         inkscape:connector-curvature="0"
         style="fill:#1a1a1a" />
      <path
         class="st15"
         d="m 393.46734,562.84793 -1.42379,0 0,4.0201 -0.58626,0 0,-4.0201 -1.50754,0 0,-0.50251 3.51759,0 0,0.50251 z"
         id="path260"
         inkscape:connector-curvature="0"
         style="fill:#1a1a1a" />
      <line
         style="fill:none;stroke:#ab010b;stroke-width:0.41876048"
         id="line262"
         y2="559.74915"
         x2="394.63986"
         y1="559.74915"
         x1="355.2764"
         class="st23" />
    </g>
  </g>
</svg>
