<?xml version="1.0" encoding="UTF-8" standalone="no"?>
<!-- Created with Inkscape (http://www.inkscape.org/) -->

<svg
   xmlns:dc="http://purl.org/dc/elements/1.1/"
   xmlns:cc="http://creativecommons.org/ns#"
   xmlns:rdf="http://www.w3.org/1999/02/22-rdf-syntax-ns#"
   xmlns:svg="http://www.w3.org/2000/svg"
   xmlns="http://www.w3.org/2000/svg"
   xmlns:sodipodi="http://sodipodi.sourceforge.net/DTD/sodipodi-0.dtd"
   xmlns:inkscape="http://www.inkscape.org/namespaces/inkscape"
   width="420"
   height="420"
   viewBox="0 0 420 420.00001"
   id="svg3358"
   version="1.1"
   inkscape:version="0.91 r13725"
   sodipodi:docname="motor-home.svg">
  <defs
     id="defs3360">
    <clipPath
       clipPathUnits="userSpaceOnUse"
       id="clipPath2060">
      <path
         d="m 0,1080 1920,0 L 1920,0 0,0 0,1080 Z"
         id="path2062"
         inkscape:connector-curvature="0" />
    </clipPath>
  </defs>
  <sodipodi:namedview
     id="base"
     pagecolor="#ffffff"
     bordercolor="#666666"
     borderopacity="1.0"
     inkscape:pageopacity="0.0"
     inkscape:pageshadow="2"
     inkscape:zoom="0.25"
     inkscape:cx="-742.20448"
     inkscape:cy="11.712322"
     inkscape:document-units="px"
     inkscape:current-layer="layer1"
     showgrid="false"
     units="px"
     inkscape:window-width="1366"
     inkscape:window-height="655"
     inkscape:window-x="0"
     inkscape:window-y="25"
     inkscape:window-maximized="1" />
  <metadata
     id="metadata3363">
    <rdf:RDF>
      <cc:Work
         rdf:about="">
        <dc:format>image/svg+xml</dc:format>
        <dc:type
           rdf:resource="http://purl.org/dc/dcmitype/StillImage" />
        <dc:title />
      </cc:Work>
    </rdf:RDF>
  </metadata>
  <g
     inkscape:label="Camada 1"
     inkscape:groupmode="layer"
     id="layer1"
     transform="translate(0,-632.36216)">
    <g
       transform="matrix(2.514827,0,0,-2.514827,-3056.2315,2257.1773)"
       id="g2056">
      <g
         id="g2058"
         clip-path="url(#clipPath2060)">
        <g
           id="g2064"
           transform="translate(1278.877,556.9932)">
          <path
             d="m 0,0 -60.512,0 c -0.343,-7.75 -0.611,-13.415 -0.655,-13.503 -0.143,-0.287 -2.425,0.284 -2.425,-2.142 0,-2.423 0.028,-4.538 0.028,-4.538 l 1.236,-0.012 19.848,0 c 0.663,8.125 7.455,14.515 15.751,14.515 8.294,0 15.086,-6.39 15.75,-14.515 L 0,-20.195 0,0 Z"
             style="fill:#e6e6e6;fill-opacity:1;fill-rule:nonzero;stroke:none"
             id="path2066"
             inkscape:connector-curvature="0" />
        </g>
        <g
           id="g2068"
           transform="translate(1357.5635,563.3354)">
          <path
             d="m 0,0 c -2.361,0 -17.824,-0.148 -19.751,0 -2.79,0.215 -1.932,1.717 -2.145,3.005 -0.216,1.288 0.428,6.012 0.428,8.588 0,2.576 1.503,3.649 3.649,3.649 l 7.085,0 c 2.146,0 3.434,-0.858 4.294,-1.502 C -5.581,13.095 0,6.011 1.288,3.649 2.575,1.288 2.361,0 0,0 m -23.186,26.835 0,2.576 c 0,1.422 1.154,2.576 2.578,2.576 l 26.619,0 c 1.423,0 2.576,-1.154 2.576,-2.576 l 0,-2.576 c 0,-1.423 -1.153,-2.577 -2.576,-2.577 l -26.619,0 c -1.424,0 -2.578,1.154 -2.578,2.577 M -34.729,6.082 c 0,-2.371 -1.921,-4.293 -4.292,-4.293 l -8.588,0 c -2.371,0 -4.294,1.922 -4.294,4.293 l 0,8.302 c 0,2.371 1.923,4.293 4.294,4.293 l 8.588,0 c 2.371,0 4.292,-1.922 4.292,-4.293 l 0,-8.302 z m -55.264,0 c 0,-2.371 -1.921,-4.293 -4.294,-4.293 l -6.869,0 c -2.372,0 -4.293,1.922 -4.293,4.293 l 0,8.302 c 0,2.371 1.921,4.293 4.293,4.293 l 6.869,0 c 2.373,0 4.294,-1.922 4.294,-4.293 l 0,-8.302 z m -19.608,0 c 0,-2.371 -1.921,-4.293 -4.293,-4.293 l -6.87,0 c -2.37,0 -4.293,1.922 -4.293,4.293 l 0,8.302 c 0,2.371 1.923,4.293 4.293,4.293 l 6.87,0 c 2.372,0 4.293,-1.922 4.293,-4.293 l 0,-8.302 z m 131.48,-26.056 0,14.831 c 0,0 -3.421,5.276 -11.265,6.132 l -15.402,17.683 17.825,0 c 2.14,0 4.137,1.284 3.281,3.994 -0.855,2.709 -3.564,10.837 -4.135,12.263 -0.572,1.426 -0.999,3.137 -4.136,3.137 l -137.255,0 c -5.086,0 -8.294,-5.112 -8.6,-12.299 -0.372,-8.759 -0.879,-20.594 -1.297,-30.016 l 60.418,0 0,23.069 c 0,2.371 1.922,4.294 4.295,4.294 l 11.163,0 c 2.372,0 4.292,-1.923 4.292,-4.294 l 0,-23.069 32.89,0 0,-2.093 -32.89,0 0,-20.196 44.543,0 c 0.665,8.125 7.456,14.516 15.751,14.516 8.295,0 15.088,-6.391 15.75,-14.516 l 7.624,0 0,4.853 c 0,1.14 -1.141,1.711 -2.852,1.711"
             style="fill:#e6e6e6;fill-opacity:1;fill-rule:nonzero;stroke:none"
             id="path2070"
             inkscape:connector-curvature="0" />
        </g>
        <g
           id="g2072"
           transform="translate(1358.9209,529.5625)">
          <path
             d="m 0,0 c -3.278,0 -5.935,2.657 -5.935,5.935 0,3.278 2.657,5.934 5.935,5.934 3.277,0 5.935,-2.656 5.935,-5.934 C 5.935,2.657 3.277,0 0,0 m 0,17.653 c -6.474,0 -11.72,-5.247 -11.72,-11.718 0,-6.473 5.246,-11.72 11.72,-11.72 6.472,0 11.72,5.247 11.72,11.72 0,6.471 -5.248,11.718 -11.72,11.718"
             style="fill:#e6e6e6;fill-opacity:1;fill-rule:nonzero;stroke:none"
             id="path2074"
             inkscape:connector-curvature="0" />
        </g>
        <g
           id="g2076"
           transform="translate(1252.1475,529.5625)">
          <path
             d="m 0,0 c -3.278,0 -5.935,2.657 -5.935,5.935 0,3.278 2.657,5.934 5.935,5.934 3.277,0 5.935,-2.656 5.935,-5.934 C 5.935,2.657 3.277,0 0,0 m 0,17.653 c -6.474,0 -11.72,-5.247 -11.72,-11.718 0,-6.473 5.246,-11.72 11.72,-11.72 6.472,0 11.72,5.247 11.72,11.72 0,6.471 -5.248,11.718 -11.72,11.718"
             style="fill:#e6e6e6;fill-opacity:1;fill-rule:nonzero;stroke:none"
             id="path2078"
             inkscape:connector-curvature="0" />
        </g>
      </g>
    </g>
  </g>
</svg>
