<?xml version="1.0" encoding="UTF-8" standalone="no"?>
<!-- Created with Inkscape (http://www.inkscape.org/) -->

<svg
   xmlns:dc="http://purl.org/dc/elements/1.1/"
   xmlns:cc="http://creativecommons.org/ns#"
   xmlns:rdf="http://www.w3.org/1999/02/22-rdf-syntax-ns#"
   xmlns:svg="http://www.w3.org/2000/svg"
   xmlns="http://www.w3.org/2000/svg"
   xmlns:sodipodi="http://sodipodi.sourceforge.net/DTD/sodipodi-0.dtd"
   xmlns:inkscape="http://www.inkscape.org/namespaces/inkscape"
   width="420"
   height="420"
   viewBox="0 0 420 420.00001"
   id="svg3358"
   version="1.1"
   inkscape:version="0.91 r13725"
   sodipodi:docname="plataforma.svg">
  <defs
     id="defs3360" />
  <sodipodi:namedview
     id="base"
     pagecolor="#ffffff"
     bordercolor="#666666"
     borderopacity="1.0"
     inkscape:pageopacity="0.0"
     inkscape:pageshadow="2"
     inkscape:zoom="0.25"
     inkscape:cx="-66.204476"
     inkscape:cy="11.712322"
     inkscape:document-units="px"
     inkscape:current-layer="layer1"
     showgrid="false"
     units="px"
     inkscape:window-width="1366"
     inkscape:window-height="743"
     inkscape:window-x="0"
     inkscape:window-y="25"
     inkscape:window-maximized="1" />
  <metadata
     id="metadata3363">
    <rdf:RDF>
      <cc:Work
         rdf:about="">
        <dc:format>image/svg+xml</dc:format>
        <dc:type
           rdf:resource="http://purl.org/dc/dcmitype/StillImage" />
        <dc:title></dc:title>
      </cc:Work>
    </rdf:RDF>
  </metadata>
  <g
     inkscape:label="Camada 1"
     inkscape:groupmode="layer"
     id="layer1"
     transform="translate(0,-632.36216)">
    <g
       id="g6091"
       transform="matrix(0.90712743,0,0,0.90712743,-1.4267015e-4,632.36216)">
      <g
         style="fill:#e6e6e6"
         id="g96">
        <path
           style="fill:#e6e6e6"
           id="path98"
           d="m 307.5,272 -24,0 c -4.142,0 -7.5,3.358 -7.5,7.5 0,4.142 3.358,7.5 7.5,7.5 l 24,0 c 4.142,0 7.5,-3.358 7.5,-7.5 0,-4.142 -3.358,-7.5 -7.5,-7.5 z"
           inkscape:connector-curvature="0" />
        <path
           style="fill:#e6e6e6"
           id="path100"
           d="m 251.5,272 -24,0 c -4.142,0 -7.5,3.358 -7.5,7.5 0,4.142 3.358,7.5 7.5,7.5 l 24,0 c 4.142,0 7.5,-3.358 7.5,-7.5 0,-4.142 -3.358,-7.5 -7.5,-7.5 z"
           inkscape:connector-curvature="0" />
        <path
           style="fill:#e6e6e6"
           id="path102"
           d="m 427.5,192 -16.5,0 0,-121 16.5,0 c 2.841,0 5.438,-1.605 6.708,-4.146 1.271,-2.541 0.997,-5.582 -0.708,-7.854 l -24,-32 c -1.417,-1.889 -3.639,-3 -6,-3 l -110.234,0 -1.204,-9.028 C 295.941,14.683 299,11.452 299,7.5 299,3.358 295.642,0 291.5,0 l -48,0 c -4.142,0 -7.5,3.358 -7.5,7.5 0,3.952 3.059,7.183 6.938,7.472 L 212.934,240 195.5,240 c -4.142,0 -7.5,3.358 -7.5,7.5 l 0,24.5 -10.192,0 -29.402,-169.06 c 3.714,-0.448 6.593,-3.605 6.593,-7.44 0,-4.142 -3.358,-7.5 -7.5,-7.5 L 147,88 147,63.5 c 0,-4.142 -3.358,-7.5 -7.5,-7.5 l -8.5,0 0,-8.5 c 0,-4.142 -3.358,-7.5 -7.5,-7.5 -4.142,0 -7.5,3.358 -7.5,7.5 l 0,8.5 -8.5,0 c -4.142,0 -7.5,3.358 -7.5,7.5 l 0,24.5 -0.5,0 c -4.142,0 -7.5,3.358 -7.5,7.5 0,3.835 2.88,6.992 6.593,7.44 L 69.192,272 67.5,272 c -4.142,0 -7.5,3.358 -7.5,7.5 l 0,24.5 -24.5,0 c -4.142,0 -7.5,3.358 -7.5,7.5 l 0,32 c 0,4.142 3.358,7.5 7.5,7.5 l 24.5,0 0,24.5 c 0,4.142 3.358,7.5 7.5,7.5 l 8.5,0 0,64.995 C 75.875,447.996 75.758,448 75.631,448 69.399,448 66.707,446.654 62.98,444.792 58.709,442.657 53.394,440 43.622,440 c -4.142,0 -7.5,3.358 -7.5,7.5 0,4.142 3.358,7.5 7.5,7.5 6.232,0 8.925,1.346 12.651,3.208 4.271,2.135 9.586,4.792 19.358,4.792 9.771,0 15.084,-2.657 19.354,-4.792 3.725,-1.862 6.417,-3.208 12.646,-3.208 6.229,0 8.919,1.346 12.644,3.208 4.27,2.135 9.583,4.792 19.353,4.792 9.771,0 15.086,-2.657 19.356,-4.792 3.726,-1.863 6.418,-3.208 12.649,-3.208 6.231,0 8.923,1.346 12.649,3.208 4.27,2.135 9.584,4.792 19.356,4.792 9.772,0 15.086,-2.657 19.356,-4.792 3.726,-1.863 6.418,-3.208 12.649,-3.208 6.227,0 8.917,1.346 12.641,3.208 4.269,2.135 9.582,4.792 19.351,4.792 9.766,0 15.077,-2.657 19.344,-4.793 3.721,-1.862 6.41,-3.207 12.632,-3.207 6.228,0 8.919,1.346 12.643,3.208 4.269,2.135 9.583,4.792 19.352,4.792 9.763,0 15.073,-2.658 19.339,-4.793 3.719,-1.861 6.407,-3.207 12.625,-3.207 4.142,0 7.5,-3.358 7.5,-7.5 0,-4.142 -3.358,-7.5 -7.5,-7.5 -9.764,0 -15.073,2.658 -19.339,4.793 -3.719,1.861 -6.406,3.207 -12.625,3.207 -0.21,0 -0.406,-0.005 -0.607,-0.008 l 0,-64.992 8.5,0 c 4.142,0 7.5,-3.358 7.5,-7.5 l 0,-24.5 24.5,0 c 4.142,0 7.5,-3.358 7.5,-7.5 l 0,-32 c 0,-4.142 -3.358,-7.5 -7.5,-7.5 l -24.499,0 0,-56.5 c 0,-4.142 -3.358,-7.5 -7.5,-7.5 l -17.434,0 -22.533,-169 96.467,0 0,121 -16.5,0 c -4.142,0 -7.5,3.358 -7.5,7.5 l 0,48 c 0,4.142 3.358,7.5 7.5,7.5 l 48,0 c 4.142,0 7.5,-3.358 7.5,-7.5 l 0,-48 c 0,-4.142 -3.358,-7.5 -7.5,-7.5 z M 276.934,15 l 8.667,65 -36.201,0 8.667,-65 18.867,0 z M 282.388,95 267.5,114.141 252.612,95 l 29.776,0 z m -37.006,15.135 12.617,16.222 -17.838,22.935 5.221,-39.157 z M 250.835,160 267.5,138.573 284.165,160 l -33.33,0 z M 281.394,175 267.5,188.894 253.606,175 l 27.788,0 z m -45.172,3.829 20.671,20.671 -27.031,27.031 6.36,-47.702 z M 267.5,210.106 297.394,240 237.607,240 267.5,210.106 Z m 10.606,-10.606 20.671,-20.671 6.36,47.703 -27.031,-27.032 z m -1.105,-73.143 12.617,-16.222 5.221,39.157 -17.838,-22.935 z M 135.955,215 123.5,226.21 111.045,215 l 24.91,0 z m -29.717,-15 17.262,-23.71 17.262,23.71 -34.524,0 z m 47.204,19.442 6.952,39.973 -25.683,-23.115 18.731,-16.858 z m -6.286,-36.145 -14.379,-19.75 8.834,-12.134 5.545,31.884 z M 123.5,150.804 111.994,135 l 23.013,0 -11.507,15.804 z m 9.692,-47.804 2.956,17 -25.296,0 2.956,-17 19.384,0 z m -27.803,48.414 8.834,12.134 -14.379,19.75 5.545,-31.884 z m -11.831,68.028 18.731,16.858 -25.683,23.115 6.952,-39.973 z M 123.5,246.39 151.955,272 95.045,272 123.5,246.39 Z M 115,71 l 17,0 0,17 -17,0 0,-17 z m -40,216 0.475,0 c 0.011,0 0.023,10e-4 0.034,10e-4 0.011,0 0.022,-10e-4 0.033,-10e-4 l 112.458,0 0,17 -113,0 0,-17 z m 0,64 49,0 0,17 -49,0 0,-17 z m 16,92.472 0,-60.472 17,0 0,57.006 C 107.875,440.005 107.758,440 107.632,440 99.819,440 94.859,441.699 91,443.472 Z M 267.637,448 c -6.227,0 -8.917,-1.346 -12.641,-3.208 -4.269,-2.135 -9.582,-4.792 -19.351,-4.792 -9.771,0 -15.086,2.657 -19.356,4.792 -3.726,1.863 -6.418,3.208 -12.649,3.208 -6.231,0 -8.923,-1.346 -12.649,-3.208 -4.27,-2.135 -9.584,-4.792 -19.356,-4.792 -9.771,0 -15.086,2.657 -19.356,4.792 -3.726,1.863 -6.418,3.208 -12.649,3.208 -6.228,0 -8.919,-1.346 -12.644,-3.208 -1.216,-0.608 -2.521,-1.257 -3.985,-1.876 l 0,-59.916 8.5,0 c 4.142,0 7.5,-3.358 7.5,-7.5 l 0,-24.5 129,0 0,24.5 c 0,4.142 3.358,7.5 7.5,7.5 l 8.5,0 0,60.023 c -1.361,0.587 -2.586,1.197 -3.731,1.77 -3.723,1.862 -6.411,3.207 -12.633,3.207 z M 316,443.363 C 312.176,441.631 307.263,440 299.612,440 c -0.21,0 -0.406,0.008 -0.612,0.01 l 0,-57.01 17,0 0,60.363 z M 332,368 l -49,0 0,-17 49,0 0,17 z m 32,-32 -321,0 0,-17 321,0 0,17 z m -32,-32 -129,0 0,-49 16.495,0 c 0.005,0 0.01,0.001 0.015,0.001 0.007,0 0.014,-0.001 0.021,-0.001 l 95.939,0 c 0.007,0 0.014,0.001 0.021,0.001 0.005,0 0.01,-0.001 0.015,-0.001 l 16.494,0 0,49 z M 295.266,39 399.75,39 412.5,56 297.533,56 295.266,39 Z M 420,240 l -33,0 0,-33 33,0 0,33 z"
           inkscape:connector-curvature="0" />
      </g>
      <g
         style="fill:#e6e6e6"
         id="g104" />
      <g
         style="fill:#e6e6e6"
         id="g106" />
      <g
         style="fill:#e6e6e6"
         id="g108" />
      <g
         style="fill:#e6e6e6"
         id="g110" />
      <g
         style="fill:#e6e6e6"
         id="g112" />
      <g
         style="fill:#e6e6e6"
         id="g114" />
      <g
         style="fill:#e6e6e6"
         id="g116" />
      <g
         style="fill:#e6e6e6"
         id="g118" />
      <g
         style="fill:#e6e6e6"
         id="g120" />
      <g
         style="fill:#e6e6e6"
         id="g122" />
      <g
         style="fill:#e6e6e6"
         id="g124" />
      <g
         style="fill:#e6e6e6"
         id="g126" />
      <g
         style="fill:#e6e6e6"
         id="g128" />
      <g
         style="fill:#e6e6e6"
         id="g130" />
      <g
         style="fill:#e6e6e6"
         id="g132" />
    </g>
  </g>
</svg>
