<?xml version="1.0" encoding="UTF-8" standalone="no"?>
<!-- Created with Inkscape (http://www.inkscape.org/) -->

<svg
   xmlns:dc="http://purl.org/dc/elements/1.1/"
   xmlns:cc="http://creativecommons.org/ns#"
   xmlns:rdf="http://www.w3.org/1999/02/22-rdf-syntax-ns#"
   xmlns:svg="http://www.w3.org/2000/svg"
   xmlns="http://www.w3.org/2000/svg"
   xmlns:sodipodi="http://sodipodi.sourceforge.net/DTD/sodipodi-0.dtd"
   xmlns:inkscape="http://www.inkscape.org/namespaces/inkscape"
   width="420"
   height="420"
   viewBox="0 0 420 420.00001"
   id="svg3358"
   version="1.1"
   inkscape:version="0.91 r13725"
   sodipodi:docname="quartel.svg">
  <defs
     id="defs3360">
    <clipPath
       clipPathUnits="userSpaceOnUse"
       id="clipPath130">
      <path
         d="m 486.949,265.923 c 0,-56.146 45.513,-101.661 101.661,-101.661 l 0,0 c 56.145,0 101.661,45.515 101.661,101.661 l 0,0 c 0,56.146 -45.516,101.662 -101.661,101.662 l 0,0 c -56.148,0 -101.661,-45.516 -101.661,-101.662"
         id="path132"
         inkscape:connector-curvature="0" />
    </clipPath>
  </defs>
  <sodipodi:namedview
     id="base"
     pagecolor="#ffffff"
     bordercolor="#666666"
     borderopacity="1.0"
     inkscape:pageopacity="0.0"
     inkscape:pageshadow="2"
     inkscape:zoom="0.70710678"
     inkscape:cx="8.8102114"
     inkscape:cy="188.15818"
     inkscape:document-units="px"
     inkscape:current-layer="layer1"
     showgrid="false"
     units="px"
     inkscape:window-width="1366"
     inkscape:window-height="655"
     inkscape:window-x="0"
     inkscape:window-y="25"
     inkscape:window-maximized="1" />
  <metadata
     id="metadata3363">
    <rdf:RDF>
      <cc:Work
         rdf:about="">
        <dc:format>image/svg+xml</dc:format>
        <dc:type
           rdf:resource="http://purl.org/dc/dcmitype/StillImage" />
        <dc:title />
      </cc:Work>
    </rdf:RDF>
  </metadata>
  <g
     inkscape:label="Camada 1"
     inkscape:groupmode="layer"
     id="layer1"
     transform="translate(0,-632.36216)">
    <g
       transform="matrix(2.0656889,0,0,-2.0656889,-1005.8851,1406.0562)"
       id="g126">
      <g
         id="g128"
         clip-path="url(#clipPath130)">
        <g
           id="g134"
           transform="translate(615.0005,308.4521)">
          <path
             d="m 0,0 0,11.667 3.847,0 C 3.91,10.373 3.972,9.091 4.039,7.721 l 3.372,0 0,3.983 7.605,0 0,-3.974 5.265,0 c 0.059,1.277 0.118,2.556 0.182,3.945 l 10.901,0 0,-3.951 4.642,0 0,3.962 8.179,0 0,-3.922 3.38,0 0,3.936 4.528,0 0,-11.7 L 0,0 Z"
             style="fill:#e6e6e6;fill-opacity:1;fill-rule:evenodd;stroke:none"
             id="path136"
             inkscape:connector-curvature="0" />
        </g>
        <g
           id="g138"
           transform="translate(563.3369,320.1416)">
          <path
             d="m 0,0 0,-11.653 -52.073,0 0,11.673 3.852,0 c 0.073,-1.291 0.146,-2.569 0.225,-3.962 l 3.313,0 0,3.936 7.57,0 0,-3.943 5.416,0 0,3.95 10.831,0 c 0.062,-1.325 0.121,-2.607 0.184,-3.973 l 4.523,0 c 0.059,1.298 0.117,2.585 0.18,3.97 l 7.933,0 c 0.072,-1.301 0.143,-2.581 0.219,-3.958 l 3.343,0 0,3.96 L 0,0 Z"
             style="fill:#e6e6e6;fill-opacity:1;fill-rule:evenodd;stroke:none"
             id="path140"
             inkscape:connector-curvature="0" />
        </g>
        <path
           d="m 614.974,233.079 52.107,0 0,-7.449 -52.107,0 0,7.449 z"
           style="fill:#e6e6e6;fill-opacity:1;fill-rule:evenodd;stroke:none"
           id="path142"
           inkscape:connector-curvature="0" />
        <path
           d="m 511.221,233.07 52.097,0 0,-7.463 -52.097,0 0,7.463 z"
           style="fill:#e6e6e6;fill-opacity:1;fill-rule:evenodd;stroke:none"
           id="path144"
           inkscape:connector-curvature="0" />
        <path
           d="m 668.055,233.043 27.674,0 0,-3.795 -27.674,0 0,3.795 z"
           style="fill:#e6e6e6;fill-opacity:1;fill-rule:evenodd;stroke:none"
           id="path146"
           inkscape:connector-curvature="0" />
        <path
           d="m 481.957,233.052 27.798,0 0,-3.807 -27.798,0 0,3.807 z"
           style="fill:#e6e6e6;fill-opacity:1;fill-rule:evenodd;stroke:none"
           id="path148"
           inkscape:connector-curvature="0" />
        <g
           id="g150"
           transform="translate(645.8437,246.9707)">
          <path
             d="m 0,0 -9.451,0 c -0.046,0.437 -0.128,0.854 -0.129,1.271 -0.008,5.646 0.011,11.292 -0.015,16.938 -0.008,1.743 0.456,3.277 1.82,4.392 1.111,0.907 2.185,2.194 3.886,1.475 2.066,-0.872 3.824,-2.201 3.859,-4.65 C 0.06,13.018 0,6.607 0,0"
             style="fill:#e6e6e6;fill-opacity:1;fill-rule:evenodd;stroke:none"
             id="path152"
             inkscape:connector-curvature="0" />
        </g>
        <g
           id="g154"
           transform="translate(645.8423,283.5576)">
          <path
             d="m 0,0 -9.417,0 c 0,3.644 -0.183,7.289 0.071,10.903 0.143,2.034 3.304,4.503 4.831,4.316 2.052,-0.251 4.449,-2.739 4.495,-4.864 C 0.055,6.967 0,3.576 0,0"
             style="fill:#e6e6e6;fill-opacity:1;fill-rule:evenodd;stroke:none"
             id="path156"
             inkscape:connector-curvature="0" />
        </g>
        <g
           id="g158"
           transform="translate(542.123,246.9717)">
          <path
             d="m 0,0 -9.485,0 c -0.03,0.544 -0.084,1.069 -0.084,1.595 -0.006,5.592 -0.01,11.182 -10e-4,16.774 0.004,2.675 1.559,4.876 4.074,5.76 0.345,0.121 0.759,0.177 1.114,0.112 2.179,-0.398 4.341,-2.757 4.362,-4.978 C 0.038,12.908 0,6.554 0,0"
             style="fill:#e6e6e6;fill-opacity:1;fill-rule:evenodd;stroke:none"
             id="path160"
             inkscape:connector-curvature="0" />
        </g>
        <g
           id="g162"
           transform="translate(542.1304,283.5498)">
          <path
             d="m 0,0 -9.498,0 c 0,3.619 -0.157,7.212 0.061,10.782 0.127,2.07 3.31,4.653 4.897,4.433 2.206,-0.306 4.492,-2.863 4.528,-5.199 C 0.038,6.736 0,3.457 0,0"
             style="fill:#e6e6e6;fill-opacity:1;fill-rule:evenodd;stroke:none"
             id="path164"
             inkscape:connector-curvature="0" />
        </g>
        <g
           id="g166"
           transform="translate(593.0947,283.0391)">
          <path
             d="m 0,0 c -2.284,-1.002 -2.32,-2.553 -1.492,-4.512 -1.632,1.792 -3.115,1.567 -4.741,0.01 0.987,1.982 0.784,3.479 -1.428,4.514 2.35,-0.395 3.485,0.56 3.787,2.867 C -3.452,0.709 -2.438,-0.453 0,0"
             style="fill:#e6e6e6;fill-opacity:1;fill-rule:evenodd;stroke:none"
             id="path168"
             inkscape:connector-curvature="0" />
        </g>
        <g
           id="g170"
           transform="translate(661.4067,247.5566)">
          <path
             d="m 0,0 c 0,-0.153 0.077,-0.307 0.159,-0.614 l 4.175,0 0,-10.196 -49.391,0 0,10.125 5.229,0 c 0,3.099 0,5.99 0,8.88 0,3.069 0.002,6.137 0.003,9.205 0,3.687 -1.605,5.671 -5.286,6.459 l 0,33.498 49.593,0 0,-1.823 C 4.482,45.499 4.463,35.464 4.506,25.429 4.511,24.267 4.276,23.551 3.153,22.976 1.095,21.921 0.008,20.102 -0.002,17.767 -0.03,11.845 -0.008,5.922 0,0 m -46.586,-10.816 -5.231,0 0,1.774 c 0,5.047 0.007,10.094 -0.002,15.141 -0.019,10.888 -8.781,19.371 -19.681,19.687 -10.677,0.31 -20.714,-8.319 -20.453,-20.434 0.104,-4.826 0.017,-9.655 0.017,-14.483 l 0,-1.705 -5.268,0 0,52.986 50.618,0 0,-52.966 z m -52.711,36.258 c 0.004,-1.142 -0.19,-1.893 -1.325,-2.486 -2.173,-1.136 -3.147,-3.042 -3.121,-5.542 0.057,-5.431 0.016,-10.861 0.021,-16.292 0,-0.535 0.045,-1.07 0.075,-1.743 l 4.16,0 0,-10.18 -49.374,0 0,10.108 5.236,0 c 0,0.869 -0.002,1.558 0.001,2.247 0.022,5.484 0.026,10.968 0.076,16.453 0.027,2.94 -1.764,4.984 -5.331,5.919 l 0,33.588 1.82,0 c 15.251,0 30.501,-0.024 45.751,0.035 1.568,0.006 2.037,-0.384 2.026,-1.991 C -99.355,45.52 -99.334,35.48 -99.297,25.442 M 32.955,-10.946 c -8.339,0.015 -16.677,0.009 -25.016,0.009 l -2.042,0 0,53.23 28.437,0 0,4.955 -8.805,0 0,-3.613 -5.359,0 0,3.611 -7.465,0 c -0.058,-1.256 -0.113,-2.432 -0.17,-3.648 l -3.317,0 C 9.162,44.86 9.11,46.034 9.049,47.397 l -3.304,0 0,11.372 -52.28,0 0,-11.47 -3.983,0 0,-3.668 -3.384,0 0,3.604 -8.041,0 c -0.059,-1.27 -0.114,-2.444 -0.17,-3.644 l -4.608,0 0,3.644 -10.785,0 c -0.062,-1.272 -0.12,-2.45 -0.18,-3.647 l -5.177,0 c -0.063,1.256 -0.123,2.428 -0.184,3.647 l -7.427,0 c -0.06,-1.264 -0.115,-2.437 -0.171,-3.62 l -3.241,0 c -0.057,1.287 -0.11,2.461 -0.167,3.76 l -3.96,0 0,11.353 -52.307,0 0,-11.417 -4.138,0 c -0.06,-1.337 -0.111,-2.512 -0.165,-3.725 l -3.284,0 0,3.638 -8.068,0 c -0.068,-1.286 -0.131,-2.46 -0.194,-3.621 l -4.484,0 c -0.059,1.273 -0.113,2.447 -0.168,3.647 l -8.567,0 0,-5.086 28.802,0 0,-53.101 -1.883,0 c -6.309,0 -12.617,10e-4 -18.927,0 -2.358,0 -4.719,0.033 -7.076,-0.035 -0.382,-0.011 -0.751,-0.468 -1.126,-0.72 0.088,-0.15 0.175,-0.298 0.263,-0.447 l 89.75,0 0,3.956 c 0,4.261 0.077,8.525 -0.015,12.784 -0.231,10.695 8.629,18.311 18.055,18.039 9.622,-0.28 17.356,-7.768 17.373,-17.38 0.008,-4.454 10e-4,-8.909 10e-4,-13.364 l 0,-4.035 88.508,0 c 0.336,1.533 -0.705,1.192 -1.382,1.193"
             style="fill:#e6e6e6;fill-opacity:1;fill-rule:evenodd;stroke:none"
             id="path172"
             inkscape:connector-curvature="0" />
        </g>
      </g>
    </g>
  </g>
</svg>
