<?xml version="1.0" encoding="UTF-8" standalone="no"?>
<!-- Created with Inkscape (http://www.inkscape.org/) -->

<svg
   xmlns:dc="http://purl.org/dc/elements/1.1/"
   xmlns:cc="http://creativecommons.org/ns#"
   xmlns:rdf="http://www.w3.org/1999/02/22-rdf-syntax-ns#"
   xmlns:svg="http://www.w3.org/2000/svg"
   xmlns="http://www.w3.org/2000/svg"
   xmlns:sodipodi="http://sodipodi.sourceforge.net/DTD/sodipodi-0.dtd"
   xmlns:inkscape="http://www.inkscape.org/namespaces/inkscape"
   width="420"
   height="420"
   viewBox="0 0 420 420.00001"
   id="svg3358"
   version="1.1"
   inkscape:version="0.91 r13725"
   sodipodi:docname="quilombola.svg">
  <defs
     id="defs3360" />
  <sodipodi:namedview
     id="base"
     pagecolor="#ffffff"
     bordercolor="#666666"
     borderopacity="1.0"
     inkscape:pageopacity="0.0"
     inkscape:pageshadow="2"
     inkscape:zoom="0.25"
     inkscape:cx="-66.204476"
     inkscape:cy="11.712322"
     inkscape:document-units="px"
     inkscape:current-layer="layer1"
     showgrid="false"
     units="px"
     inkscape:window-width="1366"
     inkscape:window-height="743"
     inkscape:window-x="0"
     inkscape:window-y="25"
     inkscape:window-maximized="1" />
  <metadata
     id="metadata3363">
    <rdf:RDF>
      <cc:Work
         rdf:about="">
        <dc:format>image/svg+xml</dc:format>
        <dc:type
           rdf:resource="http://purl.org/dc/dcmitype/StillImage" />
        <dc:title></dc:title>
      </cc:Work>
    </rdf:RDF>
  </metadata>
  <g
     inkscape:label="Camada 1"
     inkscape:groupmode="layer"
     id="layer1"
     transform="translate(0,-632.36216)">
    <g
       id="g5913"
       transform="matrix(0.99172851,0,0,0.99172851,0.00148801,632.36216)">
      <g
         style="fill:#e6e6e6"
         id="g190">
        <path
           style="fill:#e6e6e6"
           id="path192"
           d="m 222.489,408.878 -21.447,-7.072 4.61,-87.806 7.303,0 c 4.142,0 7.5,-3.358 7.5,-7.5 l 0,-72.69 c 0,-0.01 0,-81.24 0,-81.24 0.718,0.016 1.436,0.029 2.153,0.029 21.454,0 42.12,-7.237 59.089,-20.862 19.719,-15.832 32.092,-38.396 34.84,-63.534 0.45,-4.118 -2.523,-7.82 -6.641,-8.271 -4.12,-0.451 -7.82,2.522 -8.271,6.641 -2.313,21.155 -12.726,40.144 -29.32,53.468 -15.116,12.137 -33.714,18.226 -52.899,17.471 -3.033,-9.991 -12.327,-17.285 -23.296,-17.285 l -3.233,0 c -1.369,-1.819 -3.538,-3 -5.99,-3 -2.452,0 -4.621,1.181 -5.99,3 l -20.074,0 c -1.369,-1.819 -3.538,-3 -5.99,-3 -2.452,0 -4.621,1.181 -5.99,3 l -3.234,0 c -10.958,0 -20.246,7.28 -23.288,17.256 -25.707,3.187 -45.675,25.152 -45.675,51.708 0,26.192 19.423,47.925 44.62,51.573 l 0,65.736 c 0,4.142 3.358,7.5 7.5,7.5 l 7.302,0 4.611,87.807 -21.447,7.071 c -3.934,1.297 -6.071,5.538 -4.774,9.472 1.04,3.154 3.972,5.153 7.121,5.153 0.779,0 1.57,-0.122 2.35,-0.379 l 26.889,-8.866 c 3.212,-1.06 5.318,-4.138 5.141,-7.516 L 151.092,314 l 39.54,0 -4.87,92.742 c -0.177,3.378 1.929,6.457 5.141,7.516 l 26.889,8.865 c 0.78,0.257 1.571,0.379 2.35,0.379 3.149,0 6.082,-2 7.121,-5.153 1.297,-3.933 -0.841,-8.174 -4.774,-9.471 z m -60.154,-273.652 17.053,0 0,44.247 c 0,4.702 -3.825,8.527 -8.527,8.527 -4.702,0 -8.526,-3.825 -8.526,-8.527 l 0,-44.247 z m -15,0 0,44.247 c 0,12.973 10.554,23.527 23.526,23.527 12.972,0 23.527,-10.554 23.527,-23.527 l 0,-44.247 1.723,0 c 5.133,0 9.31,4.161 9.34,9.287 0,0.03 0.003,0.059 0.003,0.088 l 0,81.708 -69.186,0 0,-81.74 c 0,-5.152 4.191,-9.343 9.343,-9.343 l 1.724,0 z M 136.269,299 l 0,-57.69 44.746,0 0,57.69 -44.746,0 z m 59.746,-57.69 9.44,0 0,57.69 -9.44,0 0,-57.69 z M 91.648,189.189 c 0,-17.899 12.735,-32.88 29.62,-36.358 l 0,72.716 c -16.885,-3.478 -29.62,-18.458 -29.62,-36.358 z"
           inkscape:connector-curvature="0" />
        <path
           style="fill:#e6e6e6"
           id="path194"
           d="m 170.854,109.962 c 28.061,0 50.891,-22.822 50.891,-50.875 0,-10.375 -3.127,-20.03 -8.479,-28.085 l 0.951,-0.856 c 3.078,-2.772 3.327,-7.514 0.555,-10.592 C 212,16.475 207.258,16.227 204.18,18.999 l -0.949,0.854 c -1.602,-1.325 -3.295,-2.542 -5.053,-3.666 l 0.523,-1.174 c 1.685,-3.784 -0.017,-8.217 -3.801,-9.902 -3.785,-1.686 -8.217,0.017 -9.902,3.801 l -0.513,1.153 c -1.998,-0.556 -4.041,-1.002 -6.13,-1.312 l 0,-1.253 c 0,-4.142 -3.358,-7.5 -7.5,-7.5 -4.142,0 -7.5,3.358 -7.5,7.5 l 0,1.253 c -2.083,0.31 -4.121,0.754 -6.115,1.309 l -0.512,-1.149 c -1.685,-3.784 -6.12,-5.486 -9.902,-3.801 -3.784,1.685 -5.486,6.118 -3.801,9.902 l 0.521,1.17 c -1.759,1.124 -3.452,2.342 -5.055,3.667 l -0.946,-0.852 c -3.078,-2.771 -7.821,-2.523 -10.592,0.555 -2.771,3.078 -2.523,7.82 0.555,10.592 L 128.457,31 c -5.351,8.056 -8.478,17.711 -8.478,28.087 0,28.053 22.823,50.875 50.875,50.875 z M 134.979,59.087 c 0,-19.791 16.093,-35.892 35.875,-35.892 19.79,0 35.891,16.101 35.891,35.892 0,19.781 -16.101,35.875 -35.891,35.875 -19.781,0 -35.875,-16.093 -35.875,-35.875 z"
           inkscape:connector-curvature="0" />
        <path
           style="fill:#e6e6e6"
           id="path196"
           d="m 341.882,271.531 c 1.661,-1.376 2.72,-3.454 2.72,-5.779 0,-3.511 -2.416,-6.45 -5.674,-7.267 -2.674,-10.295 -5.981,-19.709 -9.855,-27.887 -1.241,-2.619 -3.879,-4.289 -6.778,-4.289 l -64.157,0 c -2.898,0 -5.537,1.67 -6.778,4.29 -3.873,8.178 -7.18,17.592 -9.854,27.886 -3.258,0.817 -5.674,3.756 -5.674,7.267 0,2.325 1.059,4.403 2.72,5.779 -3.236,16.525 -4.973,34.72 -4.973,53.375 0,36.076 6.481,70.449 17.781,94.306 1.241,2.62 3.88,4.29 6.778,4.29 l 64.157,0 c 2.898,0 5.537,-1.67 6.778,-4.29 11.3,-23.855 17.781,-58.229 17.781,-94.306 0,-18.656 -1.736,-36.85 -4.972,-53.375 z m -78.886,136.97 c -9.192,-21.7 -14.416,-51.815 -14.416,-83.596 0,-18.188 1.718,-35.822 4.904,-51.653 l 73.467,0 c 3.186,15.832 4.904,33.465 4.904,51.653 0,31.782 -5.224,61.896 -14.416,83.596 l -54.443,0 z M 317.438,241.31 c 2.2,5.192 4.165,10.878 5.893,16.942 l -66.229,0 c 1.728,-6.064 3.693,-11.75 5.893,-16.942 l 54.443,0 z"
           inkscape:connector-curvature="0" />
      </g>
      <g
         style="fill:#e6e6e6"
         id="g198" />
      <g
         style="fill:#e6e6e6"
         id="g200" />
      <g
         style="fill:#e6e6e6"
         id="g202" />
      <g
         style="fill:#e6e6e6"
         id="g204" />
      <g
         style="fill:#e6e6e6"
         id="g206" />
      <g
         style="fill:#e6e6e6"
         id="g208" />
      <g
         style="fill:#e6e6e6"
         id="g210" />
      <g
         style="fill:#e6e6e6"
         id="g212" />
      <g
         style="fill:#e6e6e6"
         id="g214" />
      <g
         style="fill:#e6e6e6"
         id="g216" />
      <g
         style="fill:#e6e6e6"
         id="g218" />
      <g
         style="fill:#e6e6e6"
         id="g220" />
      <g
         style="fill:#e6e6e6"
         id="g222" />
      <g
         style="fill:#e6e6e6"
         id="g224" />
      <g
         style="fill:#e6e6e6"
         id="g226" />
    </g>
  </g>
</svg>
