<?xml version="1.0" encoding="UTF-8" standalone="no"?>
<!-- Created with Inkscape (http://www.inkscape.org/) -->

<svg
   xmlns:dc="http://purl.org/dc/elements/1.1/"
   xmlns:cc="http://creativecommons.org/ns#"
   xmlns:rdf="http://www.w3.org/1999/02/22-rdf-syntax-ns#"
   xmlns:svg="http://www.w3.org/2000/svg"
   xmlns="http://www.w3.org/2000/svg"
   xmlns:sodipodi="http://sodipodi.sourceforge.net/DTD/sodipodi-0.dtd"
   xmlns:inkscape="http://www.inkscape.org/namespaces/inkscape"
   width="420"
   height="420"
   viewBox="0 0 420 420.00001"
   id="svg3358"
   version="1.1"
   inkscape:version="0.91 r13725"
   sodipodi:docname="refugiados.svg">
  <defs
     id="defs3360" />
  <sodipodi:namedview
     id="base"
     pagecolor="#ffffff"
     bordercolor="#666666"
     borderopacity="1.0"
     inkscape:pageopacity="0.0"
     inkscape:pageshadow="2"
     inkscape:zoom="0.25"
     inkscape:cx="-66.204476"
     inkscape:cy="11.712322"
     inkscape:document-units="px"
     inkscape:current-layer="layer1"
     showgrid="false"
     units="px"
     inkscape:window-width="1366"
     inkscape:window-height="743"
     inkscape:window-x="0"
     inkscape:window-y="25"
     inkscape:window-maximized="1" />
  <metadata
     id="metadata3363">
    <rdf:RDF>
      <cc:Work
         rdf:about="">
        <dc:format>image/svg+xml</dc:format>
        <dc:type
           rdf:resource="http://purl.org/dc/dcmitype/StillImage" />
        <dc:title></dc:title>
      </cc:Work>
    </rdf:RDF>
  </metadata>
  <g
     inkscape:label="Camada 1"
     inkscape:groupmode="layer"
     id="layer1"
     transform="translate(0,-632.36216)">
    <g
       id="g5831"
       transform="matrix(7,0,0,7,0,632.36216)">
      <path
         style="fill:#e6e6e6"
         id="path235"
         d="M 51.371,3.146 C 50.912,2.961 40.012,-1.306 31.531,3.191 24.811,6.758 13.015,4.082 10,3.308 L 10,1 C 10,0.447 9.553,0 9,0 8.447,0 8,0.447 8,1 L 8,4 C 8,4.014 8.007,4.026 8.008,4.04 8.008,4.052 8,4.062 8,4.074 L 8,33 8,34.074 8,59 c 0,0.553 0.447,1 1,1 0.553,0 1,-0.447 1,-1 l 0,-23.625 c 2.273,0.567 7.227,1.632 12.368,1.632 3.557,0 7.2,-0.511 10.101,-2.049 7.652,-4.061 18.056,0.004 18.16,0.045 0.309,0.124 0.657,0.086 0.932,-0.102 C 51.835,34.716 52,34.406 52,34.074 l 0,-30 C 52,3.665 51.751,3.298 51.371,3.146 Z M 50,32.665 C 46.74,31.627 38.354,29.569 31.531,33.19 24.812,36.756 13.02,34.082 10,33.308 L 10,33 10,5.375 C 13.853,6.336 25.381,8.718 32.469,4.958 39.035,1.475 47.627,3.973 50,4.777 l 0,27.888 z"
         inkscape:connector-curvature="0" />
      <g
         style="fill:#e6e6e6"
         id="g237" />
      <g
         style="fill:#e6e6e6"
         id="g239" />
      <g
         style="fill:#e6e6e6"
         id="g241" />
      <g
         style="fill:#e6e6e6"
         id="g243" />
      <g
         style="fill:#e6e6e6"
         id="g245" />
      <g
         style="fill:#e6e6e6"
         id="g247" />
      <g
         style="fill:#e6e6e6"
         id="g249" />
      <g
         style="fill:#e6e6e6"
         id="g251" />
      <g
         style="fill:#e6e6e6"
         id="g253" />
      <g
         style="fill:#e6e6e6"
         id="g255" />
      <g
         style="fill:#e6e6e6"
         id="g257" />
      <g
         style="fill:#e6e6e6"
         id="g259" />
      <g
         style="fill:#e6e6e6"
         id="g261" />
      <g
         style="fill:#e6e6e6"
         id="g263" />
      <g
         style="fill:#e6e6e6"
         id="g265" />
      <path
         sodipodi:nodetypes="cccccscc"
         inkscape:connector-curvature="0"
         d="m 51,33.549584 c -3.423,-1.0899 -12.2283,-3.2508 -19.392451,0.551249 C 24.5526,37.845133 12.171,35.037433 9,34.224733 l 0,-0.3234 0,-29.0062493 c 4.045651,1.00905 16.150051,3.51015 23.592451,-0.43785 C 39.486749,0.80008369 48.508351,3.4229837 51,4.2671837 Z"
         id="path4181"
         style="fill:#e6e6e6" />
    </g>
  </g>
</svg>
