<?xml version="1.0" encoding="UTF-8" standalone="no"?>
<!-- Created with Inkscape (http://www.inkscape.org/) -->

<svg
   xmlns:dc="http://purl.org/dc/elements/1.1/"
   xmlns:cc="http://creativecommons.org/ns#"
   xmlns:rdf="http://www.w3.org/1999/02/22-rdf-syntax-ns#"
   xmlns:svg="http://www.w3.org/2000/svg"
   xmlns="http://www.w3.org/2000/svg"
   xmlns:sodipodi="http://sodipodi.sourceforge.net/DTD/sodipodi-0.dtd"
   xmlns:inkscape="http://www.inkscape.org/namespaces/inkscape"
   width="420"
   height="420"
   viewBox="0 0 420 420.00001"
   id="svg3358"
   version="1.1"
   inkscape:version="0.91 r13725"
   sodipodi:docname="veleiros.svg">
  <defs
     id="defs3360" />
  <sodipodi:namedview
     id="base"
     pagecolor="#ffffff"
     bordercolor="#666666"
     borderopacity="1.0"
     inkscape:pageopacity="0.0"
     inkscape:pageshadow="2"
     inkscape:zoom="1"
     inkscape:cx="224.5"
     inkscape:cy="234.02083"
     inkscape:document-units="px"
     inkscape:current-layer="layer1"
     showgrid="false"
     units="px"
     inkscape:window-width="1366"
     inkscape:window-height="743"
     inkscape:window-x="0"
     inkscape:window-y="25"
     inkscape:window-maximized="1" />
  <metadata
     id="metadata3363">
    <rdf:RDF>
      <cc:Work
         rdf:about="">
        <dc:format>image/svg+xml</dc:format>
        <dc:type
           rdf:resource="http://purl.org/dc/dcmitype/StillImage" />
        <dc:title></dc:title>
      </cc:Work>
    </rdf:RDF>
  </metadata>
  <g
     inkscape:label="Camada 1"
     inkscape:groupmode="layer"
     id="layer1"
     transform="translate(0,-632.36216)">
    <g
       transform="matrix(7.3103988,0,0,7.3103988,8.6076854e-4,632.36513)"
       id="g4135">
      <path
         inkscape:connector-curvature="0"
         id="path7"
         d="m 6.989,44.744 c 0.229,0 0.474,-0.029 0.729,-0.093 2.483,-0.599 5.515,-0.901 9.013,-0.901 1.207,0 2.435,0.037 3.646,0.109 0.895,0.049 1.649,-0.262 2.119,-0.875 0.443,-0.578 0.568,-1.34 0.352,-2.146 -3.363,-12.556 -1.24,-21.581 -0.171,-24.878 0.201,-0.62 0.336,-1.264 -0.028,-1.765 -0.189,-0.259 -0.567,-0.451 -0.887,-0.451 -0.586,0 -1.027,0.439 -1.415,0.914 C 13.872,22.564 7.738,36.414 5.4,42.001 c -0.406,0.973 -0.195,1.621 0.054,1.994 0.32,0.483 0.866,0.749 1.535,0.749 z M 19.937,18.505 c -0.996,4.679 -1.748,12.674 0.978,22.85 0.059,0.221 0.033,0.359 -0.007,0.411 -0.046,0.062 -0.148,0.104 -0.412,0.097 -1.252,-0.074 -2.519,-0.113 -3.767,-0.113 -3.644,0 -6.825,0.32 -9.456,0.951 2.083,-4.972 7.124,-16.362 12.664,-24.196 z"
         style="fill:#e6e6e6" />
      <path
         inkscape:connector-curvature="0"
         id="path9"
         d="m 27.924,42.703 c 0.475,0.614 1.225,0.932 2.133,0.864 1.545,-0.108 3.952,-0.241 6.648,-0.241 5.506,0 9.944,0.553 12.834,1.596 0.379,0.138 0.709,0.203 1.012,0.203 10e-4,0 10e-4,0 10e-4,0 0.552,0 1.021,-0.238 1.284,-0.654 0.316,-0.502 0.295,-1.145 -0.065,-1.912 C 49.175,37.051 39.946,18.412 30.198,9.804 29.247,8.966 28.296,8.989 27.798,9.649 c -0.321,0.43 -0.365,1.022 -0.135,1.813 1.194,4.077 3.578,15.073 -0.099,29.097 -0.212,0.805 -0.084,1.567 0.36,2.144 z m 1.574,-1.638 c 3.438,-13.118 1.742,-23.711 0.467,-28.753 8.765,8.454 16.987,24.777 19.737,30.551 -3.123,-1.021 -7.49,-1.537 -12.996,-1.537 -2.756,0 -5.213,0.135 -6.873,0.25 -0.155,0 -0.279,-0.035 -0.324,-0.095 -0.042,-0.054 -0.069,-0.194 -0.011,-0.416 z"
         style="fill:#e6e6e6" />
      <path
         inkscape:connector-curvature="0"
         id="path11"
         d="M 53.847,47.242 C 53.55,46.781 53.03,46.517 52.42,46.517 l -26.114,0 0,-43.203 0,-0.498 0,-1.781 c 0,-0.553 -0.447,-1 -1,-1 -0.229,0 -0.429,0.09 -0.597,0.218 C 24.249,0.041 23.726,-0.056 23.163,0.032 19.05,0.675 13.592,2.58 10.705,3.659 10.051,3.903 9.155,4.237 9.321,5.155 9.347,5.3 9.527,6.021 10.496,6.021 c 0.17,0 0.436,-0.021 0.794,-0.07 1.467,-0.201 3.147,-0.303 4.991,-0.303 2.72,0 5.27,0.22 6.93,0.405 0.114,0.013 0.227,0.019 0.339,0.019 0.267,0 0.516,-0.045 0.756,-0.109 l 0,40.555 -19.242,0 c -0.598,0 -1.118,0.258 -1.426,0.708 -0.309,0.449 -0.361,1.027 -0.145,1.586 l 1.527,3.945 c 0.154,0.396 0.294,1.146 0.294,1.57 l 0,1.125 c 0,1.103 0.898,2 2,2 l 42.39,0 c 1.104,0 2,-0.897 2,-2 L 51.7,54.444 51.747,53.932 c 0.014,-0.126 0.157,-0.63 0.373,-1.105 l 1.801,-3.988 c 0.249,-0.554 0.223,-1.136 -0.074,-1.597 z M 23.432,4.065 c -1.59,-0.177 -3.973,-0.386 -6.56,-0.414 2.215,-0.689 4.587,-1.329 6.6,-1.643 0.456,-0.077 0.834,0.305 0.834,0.808 l 0,0.498 c 0,0.492 -0.374,0.813 -0.874,0.751 z m 26.863,47.938 c -0.231,0.514 -0.5,1.278 -0.543,1.748 l -0.049,0.604 0.002,1.097 -42.391,0 0,-1.125 c 0,-0.676 -0.184,-1.662 -0.429,-2.293 l -1.361,-3.518 46.348,0 -1.577,3.487 z"
         style="fill:#e6e6e6" />
    </g>
  </g>
</svg>
